<mxfile host="app.diagrams.net" agent="Mozilla/5.0 (Windows NT 10.0; Win64; x64; rv:136.0) Gecko/20100101 Firefox/136.0" version="26.1.0">
  <diagram name="Page-1" id="QSTXjSivzjvqg6qNofOq">
    <mxGraphModel dx="4555" dy="1134" grid="1" gridSize="10" guides="1" tooltips="1" connect="1" arrows="1" fold="1" page="1" pageScale="1" pageWidth="827" pageHeight="1169" math="0" shadow="0">
      <root>
        <mxCell id="0" />
        <mxCell id="1" parent="0" />
        <UserObject label="" plantUmlData="{&#xa;  &quot;data&quot;: &quot;@startuml\n\n&#39; --- ENUM ---\nenum Rarity {\n    RARE\n    SUPERRARE\n    EPIC\n    MYTHIC\n    LEGENDARY\n}\n\n&#39; --- CLASS: Brawler ---\nclass Brawler {\n    - int range\n    - int damage\n    - int hp\n    - Rarity rarity\n    \n    + Brawler(int range, int damage, int hp, Rarity rarity)\n    + boolean attack()\n    + boolean levelUp()\n    + Rarity getRarity()\n    + void setRarity(Rarity rarity)\n    + int getRange()\n    + void setRange(int range)\n    + int getDamage()\n    + void setDamage(int damage)\n    + int getHp()\n    + void setHp(int hp)\n}\n\n&#39; --- Subclasses of Brawler ---\nclass Bull {\n    + Bull(int range, int damage, int hp, Rarity rarity)\n}\n\nclass Carl {\n    + Carl(int range, int damage, int hp, Rarity rarity)\n    + void specialAttack()\n}\n\nclass Crow {\n    + Crow(int range, int damage, int hp, Rarity rarity)\n    + void poison()\n}\n\nclass Mandy {\n    + Mandy(int range, int damage, int hp, Rarity rarity)\n    + void rangeExtencion()\n}\n\nclass Mortis {\n    + Mortis(int range, int damage, int hp, Rarity rarity)\n    + void dashAbillity()\n}\n\nclass Piper {\n    + Piper(int range, int damage, int hp, Rarity rarity)\n}\n\nclass Poco {\n    + Poco(int range, int damage, int hp, Rarity rarity)\n    + void healing()\n}\n\nclass Shelly {\n    + Shelly(int range, int damage, int hp, Rarity rarity)\n}\n\nclass Surge {\n    + Surge(int range, int damage, int hp, Rarity rarity)\n    + void upgrade()\n}\n\n&#39; --- CLASS: FullMap ---\nclass FullMap {\n    - Map&lt;String, Location&gt; locations\n    \n    + FullMap(Map&lt;String, Location&gt; locations)\n    + void loadWorldFromCSV(String filename)\n    + String getDirection(int index)\n}\n\n&#39; --- CLASS: Location ---\nclass Location {\n    - String name\n    - Map&lt;String, Location&gt; exits\n    \n    + Location(String name)\n    + String getName()\n    + void setName(String name)\n    + Map&lt;String, Location&gt; getExits()\n    + void setExit(String direction, Location room)\n}\n\n&#39; --- CLASS: Profile ---\nclass Profile {\n    - String username\n    - int xp\n    - int powerPoints\n    - int coins\n    - int trophies\n    \n    + String viewProfile()\n    + String getUsername()\n    + void setUsername(String username)\n    + int getXp()\n    + void setXp(int xp)\n    + int getPowerPoints()\n    + void setPowerPoints(int powerPoints)\n    + int getCoins()\n    + void setCoins(int coins)\n    + int getTrophies()\n    + void setTrophies(int trophies)\n}\n\n&#39; --- Relationships ---\nBrawler &lt;|-- Bull\nBrawler &lt;|-- Carl\nBrawler &lt;|-- Crow\nBrawler &lt;|-- Mandy\nBrawler &lt;|-- Mortis\nBrawler &lt;|-- Piper\nBrawler &lt;|-- Poco\nBrawler &lt;|-- Shelly\nBrawler &lt;|-- Surge\n\nFullMap --&gt; Location : contains &gt;\nBrawler --&gt; Rarity\n\n@enduml\n&quot;,&#xa;  &quot;format&quot;: &quot;svg&quot;&#xa;}" id="qna3Q6m2CO_pDa12aTsP-1">
          <mxCell style="shape=image;noLabel=1;verticalAlign=top;aspect=fixed;imageAspect=0;image=data:image/svg+xml,PD94bWwgdmVyc2lvbj0iMS4wIiBlbmNvZGluZz0idXMtYXNjaWkiIHN0YW5kYWxvbmU9Im5vIj8+PHN2ZyB4bWxucz0iaHR0cDovL3d3dy53My5vcmcvMjAwMC9zdmciIHhtbG5zOnhsaW5rPSJodHRwOi8vd3d3LnczLm9yZy8xOTk5L3hsaW5rIiBjb250ZW50U3R5bGVUeXBlPSJ0ZXh0L2NzcyIgaGVpZ2h0PSI1MjlweCIgcHJlc2VydmVBc3BlY3RSYXRpbz0ibm9uZSIgc3R5bGU9IndpZHRoOjQ1NDVweDtoZWlnaHQ6NTI5cHg7YmFja2dyb3VuZDojRkZGRkZGOyIgdmVyc2lvbj0iMS4xIiB2aWV3Qm94PSIwIDAgNDU0NSA1MjkiIHdpZHRoPSI0NTQ1cHgiIHpvb21BbmRQYW49Im1hZ25pZnkiPjxkZWZzLz48Zz48IS0tY2xhc3MgUmFyaXR5LS0+PGcgaWQ9ImVsZW1fUmFyaXR5Ij48cmVjdCBjb2RlTGluZT0iMiIgZmlsbD0iI0YxRjFGMSIgaGVpZ2h0PSIxMjIuOTIxOSIgaWQ9IlJhcml0eSIgcng9IjIuNSIgcnk9IjIuNSIgc3R5bGU9InN0cm9rZTojMTgxODE4O3N0cm9rZS13aWR0aDowLjU7IiB3aWR0aD0iNzUiIHg9IjciIHk9IjM4NSIvPjxlbGxpcHNlIGN4PSIyMi40NSIgY3k9IjQwMSIgZmlsbD0iI0VCOTM3RiIgcng9IjExIiByeT0iMTEiIHN0eWxlPSJzdHJva2U6IzE4MTgxODtzdHJva2Utd2lkdGg6MS4wOyIvPjxwYXRoIGQ9Ik0yNi4wNzUsNDA3IEwyNi4wNzUsNDA1LjI1IEwyMC43NjI1LDQwNS4yNSBRMjAuNzYyNSw0MDUuMjUgMjAuNzYyNSw0MDEuNjg3NSBMMjUuMDEyNSw0MDEuNjg3NSBMMjUuMDEyNSwzOTkuOTM3NSBMMjAuNzYyNSwzOTkuOTM3NSBMMjAuNzYyNSwzOTcuNDM3NSBMMjYuMDc1LDM5Ny40Mzc1IEwyNi4wNzUsMzk1LjY4NzUgTDE5LjAxMjUsMzk1LjY4NzUgUTE5LjAxMjUsMzk1LjY4NzUgMTkuMDEyNSw0MDcgTDI2LjA3NSw0MDcgWiAiIGZpbGw9IiMwMDAwMDAiLz48dGV4dCBmaWxsPSIjMDAwMDAwIiBmb250LWZhbWlseT0ic2Fucy1zZXJpZiIgZm9udC1zaXplPSIxNCIgbGVuZ3RoQWRqdXN0PSJzcGFjaW5nIiB0ZXh0TGVuZ3RoPSI0MiIgeD0iMzYuNTUiIHk9IjQwNi43NDIyIj5SYXJpdHk8L3RleHQ+PGxpbmUgc3R5bGU9InN0cm9rZTojMTgxODE4O3N0cm9rZS13aWR0aDowLjU7IiB4MT0iOCIgeDI9IjgxIiB5MT0iNDE3IiB5Mj0iNDE3Ii8+PHRleHQgZmlsbD0iIzAwMDAwMCIgZm9udC1mYW1pbHk9InNhbnMtc2VyaWYiIGZvbnQtc2l6ZT0iMTQiIGxlbmd0aEFkanVzdD0ic3BhY2luZyIgdGV4dExlbmd0aD0iMjgiIHg9IjEzIiB5PSI0MzQuMjM0NCI+UkFSRTwvdGV4dD48dGV4dCBmaWxsPSIjMDAwMDAwIiBmb250LWZhbWlseT0ic2Fucy1zZXJpZiIgZm9udC1zaXplPSIxNCIgbGVuZ3RoQWRqdXN0PSJzcGFjaW5nIiB0ZXh0TGVuZ3RoPSI2MyIgeD0iMTMiIHk9IjQ0OS4yMTg4Ij5TVVBFUlJBUkU8L3RleHQ+PHRleHQgZmlsbD0iIzAwMDAwMCIgZm9udC1mYW1pbHk9InNhbnMtc2VyaWYiIGZvbnQtc2l6ZT0iMTQiIGxlbmd0aEFkanVzdD0ic3BhY2luZyIgdGV4dExlbmd0aD0iMjgiIHg9IjEzIiB5PSI0NjQuMjAzMSI+RVBJQzwvdGV4dD48dGV4dCBmaWxsPSIjMDAwMDAwIiBmb250LWZhbWlseT0ic2Fucy1zZXJpZiIgZm9udC1zaXplPSIxNCIgbGVuZ3RoQWRqdXN0PSJzcGFjaW5nIiB0ZXh0TGVuZ3RoPSI0MiIgeD0iMTMiIHk9IjQ3OS4xODc1Ij5NWVRISUM8L3RleHQ+PHRleHQgZmlsbD0iIzAwMDAwMCIgZm9udC1mYW1pbHk9InNhbnMtc2VyaWYiIGZvbnQtc2l6ZT0iMTQiIGxlbmd0aEFkanVzdD0ic3BhY2luZyIgdGV4dExlbmd0aD0iNjMiIHg9IjEzIiB5PSI0OTQuMTcxOSI+TEVHRU5EQVJZPC90ZXh0PjxsaW5lIHN0eWxlPSJzdHJva2U6IzE4MTgxODtzdHJva2Utd2lkdGg6MC41OyIgeDE9IjgiIHgyPSI4MSIgeTE9IjQ5OS45MjE5IiB5Mj0iNDk5LjkyMTkiLz48L2c+PCEtLWNsYXNzIEJyYXdsZXItLT48ZyBpZD0iZWxlbV9CcmF3bGVyIj48cmVjdCBjb2RlTGluZT0iMTEiIGZpbGw9IiNGMUYxRjEiIGhlaWdodD0iMjcyLjc2NTYiIGlkPSJCcmF3bGVyIiByeD0iMi41IiByeT0iMi41IiBzdHlsZT0ic3Ryb2tlOiMxODE4MTg7c3Ryb2tlLXdpZHRoOjAuNTsiIHdpZHRoPSI0MDEiIHg9IjE1NjYiIHk9IjE0LjUiLz48ZWxsaXBzZSBjeD0iMTczNy4yNSIgY3k9IjMwLjUiIGZpbGw9IiNBREQxQjIiIHJ4PSIxMSIgcnk9IjExIiBzdHlsZT0ic3Ryb2tlOiMxODE4MTg7c3Ryb2tlLXdpZHRoOjEuMDsiLz48cGF0aCBkPSJNMTczNC44NzUsMzQuNzUgTDE3MzQuODc1LDM2LjUgTDE3MzkuODEyNSwzNi41IEwxNzM5LjgxMjUsMzQuNzUgTDE3MzQuODc1LDM0Ljc1IFogTTE3MzUuNTYyNSwzNS40Mzc1IFExNzM1LjU2MjUsMzUuNDM3NSAxNzM1LjU2MjUsMjYuMjUgTDE3MzMuODEyNSwyNi4yNSBRMTczMy44MTI1LDI2LjI1IDE3MzMuODEyNSwzNS40Mzc1IEwxNzM1LjU2MjUsMzUuNDM3NSBaIE0xNzM5LjEyNSwzNS40Mzc1IEwxNzQwLjg3NSwzNS40Mzc1IFExNzQwLjg3NSwzNS40Mzc1IDE3NDAuODc1LDMyLjYyNSBMMTczOS4xMjUsMzIuNjI1IFExNzM5LjEyNSwzMi42MjUgMTczOS4xMjUsMzUuNDM3NSBaIE0xNzM5LjEyNSwyNi4yNSBRMTczOS4xMjUsMjYuMjUgMTczOS4xMjUsMjkuMDYyNSBMMTc0MC44NzUsMjkuMDYyNSBRMTc0MC44NzUsMjkuMDYyNSAxNzQwLjg3NSwyNi4yNSBMMTczOS4xMjUsMjYuMjUgWiBNMTczNC44NzUsMjYuOTM3NSBMMTczOS44MTI1LDI2LjkzNzUgTDE3MzkuODEyNSwyNS4xODc1IEwxNzM0Ljg3NSwyNS4xODc1IEwxNzM0Ljg3NSwyNi45Mzc1IFogIiBmaWxsPSIjMDAwMDAwIi8+PHRleHQgZmlsbD0iIzAwMDAwMCIgZm9udC1mYW1pbHk9InNhbnMtc2VyaWYiIGZvbnQtc2l6ZT0iMTQiIGxlbmd0aEFkanVzdD0ic3BhY2luZyIgdGV4dExlbmd0aD0iNTAiIHg9IjE3NTcuNzUiIHk9IjM2LjI0MjIiPkJyYXdsZXI8L3RleHQ+PGxpbmUgc3R5bGU9InN0cm9rZTojMTgxODE4O3N0cm9rZS13aWR0aDowLjU7IiB4MT0iMTU2NyIgeDI9IjE5NjYiIHkxPSI0Ni41IiB5Mj0iNDYuNSIvPjxyZWN0IGZpbGw9Im5vbmUiIGhlaWdodD0iNiIgc3R5bGU9InN0cm9rZTojQzgyOTMwO3N0cm9rZS13aWR0aDoxLjA7IiB3aWR0aD0iNiIgeD0iMTU3NCIgeT0iNTYuNDkyMiIvPjx0ZXh0IGZpbGw9IiMwMDAwMDAiIGZvbnQtZmFtaWx5PSJzYW5zLXNlcmlmIiBmb250LXNpemU9IjE0IiBsZW5ndGhBZGp1c3Q9InNwYWNpbmciIHRleHRMZW5ndGg9IjYzIiB4PSIxNTg2IiB5PSI2My43MzQ0Ij5pbnQgcmFuZ2U8L3RleHQ+PHJlY3QgZmlsbD0ibm9uZSIgaGVpZ2h0PSI2IiBzdHlsZT0ic3Ryb2tlOiNDODI5MzA7c3Ryb2tlLXdpZHRoOjEuMDsiIHdpZHRoPSI2IiB4PSIxNTc0IiB5PSI3MS40NzY2Ii8+PHRleHQgZmlsbD0iIzAwMDAwMCIgZm9udC1mYW1pbHk9InNhbnMtc2VyaWYiIGZvbnQtc2l6ZT0iMTQiIGxlbmd0aEFkanVzdD0ic3BhY2luZyIgdGV4dExlbmd0aD0iNzEiIHg9IjE1ODYiIHk9Ijc4LjcxODgiPmludCBkYW1hZ2U8L3RleHQ+PHJlY3QgZmlsbD0ibm9uZSIgaGVpZ2h0PSI2IiBzdHlsZT0ic3Ryb2tlOiNDODI5MzA7c3Ryb2tlLXdpZHRoOjEuMDsiIHdpZHRoPSI2IiB4PSIxNTc0IiB5PSI4Ni40NjA5Ii8+PHRleHQgZmlsbD0iIzAwMDAwMCIgZm9udC1mYW1pbHk9InNhbnMtc2VyaWYiIGZvbnQtc2l6ZT0iMTQiIGxlbmd0aEFkanVzdD0ic3BhY2luZyIgdGV4dExlbmd0aD0iNDIiIHg9IjE1ODYiIHk9IjkzLjcwMzEiPmludCBocDwvdGV4dD48cmVjdCBmaWxsPSJub25lIiBoZWlnaHQ9IjYiIHN0eWxlPSJzdHJva2U6I0M4MjkzMDtzdHJva2Utd2lkdGg6MS4wOyIgd2lkdGg9IjYiIHg9IjE1NzQiIHk9IjEwMS40NDUzIi8+PHRleHQgZmlsbD0iIzAwMDAwMCIgZm9udC1mYW1pbHk9InNhbnMtc2VyaWYiIGZvbnQtc2l6ZT0iMTQiIGxlbmd0aEFkanVzdD0ic3BhY2luZyIgdGV4dExlbmd0aD0iOTEiIHg9IjE1ODYiIHk9IjEwOC42ODc1Ij5SYXJpdHkgcmFyaXR5PC90ZXh0PjxsaW5lIHN0eWxlPSJzdHJva2U6IzE4MTgxODtzdHJva2Utd2lkdGg6MC41OyIgeDE9IjE1NjciIHgyPSIxOTY2IiB5MT0iMTE0LjQzNzUiIHkyPSIxMTQuNDM3NSIvPjxlbGxpcHNlIGN4PSIxNTc3IiBjeT0iMTI3LjQyOTciIGZpbGw9IiM4NEJFODQiIHJ4PSIzIiByeT0iMyIgc3R5bGU9InN0cm9rZTojMDM4MDQ4O3N0cm9rZS13aWR0aDoxLjA7Ii8+PHRleHQgZmlsbD0iIzAwMDAwMCIgZm9udC1mYW1pbHk9InNhbnMtc2VyaWYiIGZvbnQtc2l6ZT0iMTQiIGxlbmd0aEFkanVzdD0ic3BhY2luZyIgdGV4dExlbmd0aD0iMzc1IiB4PSIxNTg2IiB5PSIxMzEuNjcxOSI+QnJhd2xlcihpbnQgcmFuZ2UsIGludCBkYW1hZ2UsIGludCBocCwgUmFyaXR5IHJhcml0eSk8L3RleHQ+PGVsbGlwc2UgY3g9IjE1NzciIGN5PSIxNDIuNDE0MSIgZmlsbD0iIzg0QkU4NCIgcng9IjMiIHJ5PSIzIiBzdHlsZT0ic3Ryb2tlOiMwMzgwNDg7c3Ryb2tlLXdpZHRoOjEuMDsiLz48dGV4dCBmaWxsPSIjMDAwMDAwIiBmb250LWZhbWlseT0ic2Fucy1zZXJpZiIgZm9udC1zaXplPSIxNCIgbGVuZ3RoQWRqdXN0PSJzcGFjaW5nIiB0ZXh0TGVuZ3RoPSIxMTQiIHg9IjE1ODYiIHk9IjE0Ni42NTYzIj5ib29sZWFuIGF0dGFjaygpPC90ZXh0PjxlbGxpcHNlIGN4PSIxNTc3IiBjeT0iMTU3LjM5ODQiIGZpbGw9IiM4NEJFODQiIHJ4PSIzIiByeT0iMyIgc3R5bGU9InN0cm9rZTojMDM4MDQ4O3N0cm9rZS13aWR0aDoxLjA7Ii8+PHRleHQgZmlsbD0iIzAwMDAwMCIgZm9udC1mYW1pbHk9InNhbnMtc2VyaWYiIGZvbnQtc2l6ZT0iMTQiIGxlbmd0aEFkanVzdD0ic3BhY2luZyIgdGV4dExlbmd0aD0iMTIxIiB4PSIxNTg2IiB5PSIxNjEuNjQwNiI+Ym9vbGVhbiBsZXZlbFVwKCk8L3RleHQ+PGVsbGlwc2UgY3g9IjE1NzciIGN5PSIxNzIuMzgyOCIgZmlsbD0iIzg0QkU4NCIgcng9IjMiIHJ5PSIzIiBzdHlsZT0ic3Ryb2tlOiMwMzgwNDg7c3Ryb2tlLXdpZHRoOjEuMDsiLz48dGV4dCBmaWxsPSIjMDAwMDAwIiBmb250LWZhbWlseT0ic2Fucy1zZXJpZiIgZm9udC1zaXplPSIxNCIgbGVuZ3RoQWRqdXN0PSJzcGFjaW5nIiB0ZXh0TGVuZ3RoPSIxMjgiIHg9IjE1ODYiIHk9IjE3Ni42MjUiPlJhcml0eSBnZXRSYXJpdHkoKTwvdGV4dD48ZWxsaXBzZSBjeD0iMTU3NyIgY3k9IjE4Ny4zNjcyIiBmaWxsPSIjODRCRTg0IiByeD0iMyIgcnk9IjMiIHN0eWxlPSJzdHJva2U6IzAzODA0ODtzdHJva2Utd2lkdGg6MS4wOyIvPjx0ZXh0IGZpbGw9IiMwMDAwMDAiIGZvbnQtZmFtaWx5PSJzYW5zLXNlcmlmIiBmb250LXNpemU9IjE0IiBsZW5ndGhBZGp1c3Q9InNwYWNpbmciIHRleHRMZW5ndGg9IjIwNSIgeD0iMTU4NiIgeT0iMTkxLjYwOTQiPnZvaWQgc2V0UmFyaXR5KFJhcml0eSByYXJpdHkpPC90ZXh0PjxlbGxpcHNlIGN4PSIxNTc3IiBjeT0iMjAyLjM1MTYiIGZpbGw9IiM4NEJFODQiIHJ4PSIzIiByeT0iMyIgc3R5bGU9InN0cm9rZTojMDM4MDQ4O3N0cm9rZS13aWR0aDoxLjA7Ii8+PHRleHQgZmlsbD0iIzAwMDAwMCIgZm9udC1mYW1pbHk9InNhbnMtc2VyaWYiIGZvbnQtc2l6ZT0iMTQiIGxlbmd0aEFkanVzdD0ic3BhY2luZyIgdGV4dExlbmd0aD0iMTAwIiB4PSIxNTg2IiB5PSIyMDYuNTkzOCI+aW50IGdldFJhbmdlKCk8L3RleHQ+PGVsbGlwc2UgY3g9IjE1NzciIGN5PSIyMTcuMzM1OSIgZmlsbD0iIzg0QkU4NCIgcng9IjMiIHJ5PSIzIiBzdHlsZT0ic3Ryb2tlOiMwMzgwNDg7c3Ryb2tlLXdpZHRoOjEuMDsiLz48dGV4dCBmaWxsPSIjMDAwMDAwIiBmb250LWZhbWlseT0ic2Fucy1zZXJpZiIgZm9udC1zaXplPSIxNCIgbGVuZ3RoQWRqdXN0PSJzcGFjaW5nIiB0ZXh0TGVuZ3RoPSIxNzAiIHg9IjE1ODYiIHk9IjIyMS41NzgxIj52b2lkIHNldFJhbmdlKGludCByYW5nZSk8L3RleHQ+PGVsbGlwc2UgY3g9IjE1NzciIGN5PSIyMzIuMzIwMyIgZmlsbD0iIzg0QkU4NCIgcng9IjMiIHJ5PSIzIiBzdHlsZT0ic3Ryb2tlOiMwMzgwNDg7c3Ryb2tlLXdpZHRoOjEuMDsiLz48dGV4dCBmaWxsPSIjMDAwMDAwIiBmb250LWZhbWlseT0ic2Fucy1zZXJpZiIgZm9udC1zaXplPSIxNCIgbGVuZ3RoQWRqdXN0PSJzcGFjaW5nIiB0ZXh0TGVuZ3RoPSIxMDgiIHg9IjE1ODYiIHk9IjIzNi41NjI1Ij5pbnQgZ2V0RGFtYWdlKCk8L3RleHQ+PGVsbGlwc2UgY3g9IjE1NzciIGN5PSIyNDcuMzA0NyIgZmlsbD0iIzg0QkU4NCIgcng9IjMiIHJ5PSIzIiBzdHlsZT0ic3Ryb2tlOiMwMzgwNDg7c3Ryb2tlLXdpZHRoOjEuMDsiLz48dGV4dCBmaWxsPSIjMDAwMDAwIiBmb250LWZhbWlseT0ic2Fucy1zZXJpZiIgZm9udC1zaXplPSIxNCIgbGVuZ3RoQWRqdXN0PSJzcGFjaW5nIiB0ZXh0TGVuZ3RoPSIxODYiIHg9IjE1ODYiIHk9IjI1MS41NDY5Ij52b2lkIHNldERhbWFnZShpbnQgZGFtYWdlKTwvdGV4dD48ZWxsaXBzZSBjeD0iMTU3NyIgY3k9IjI2Mi4yODkxIiBmaWxsPSIjODRCRTg0IiByeD0iMyIgcnk9IjMiIHN0eWxlPSJzdHJva2U6IzAzODA0ODtzdHJva2Utd2lkdGg6MS4wOyIvPjx0ZXh0IGZpbGw9IiMwMDAwMDAiIGZvbnQtZmFtaWx5PSJzYW5zLXNlcmlmIiBmb250LXNpemU9IjE0IiBsZW5ndGhBZGp1c3Q9InNwYWNpbmciIHRleHRMZW5ndGg9Ijc5IiB4PSIxNTg2IiB5PSIyNjYuNTMxMyI+aW50IGdldEhwKCk8L3RleHQ+PGVsbGlwc2UgY3g9IjE1NzciIGN5PSIyNzcuMjczNCIgZmlsbD0iIzg0QkU4NCIgcng9IjMiIHJ5PSIzIiBzdHlsZT0ic3Ryb2tlOiMwMzgwNDg7c3Ryb2tlLXdpZHRoOjEuMDsiLz48dGV4dCBmaWxsPSIjMDAwMDAwIiBmb250LWZhbWlseT0ic2Fucy1zZXJpZiIgZm9udC1zaXplPSIxNCIgbGVuZ3RoQWRqdXN0PSJzcGFjaW5nIiB0ZXh0TGVuZ3RoPSIxMjgiIHg9IjE1ODYiIHk9IjI4MS41MTU2Ij52b2lkIHNldEhwKGludCBocCk8L3RleHQ+PC9nPjwhLS1jbGFzcyBCdWxsLS0+PGcgaWQ9ImVsZW1fQnVsbCI+PHJlY3QgY29kZUxpbmU9IjMxIiBmaWxsPSIjRjFGMUYxIiBoZWlnaHQ9IjYyLjk4NDQiIGlkPSJCdWxsIiByeD0iMi41IiByeT0iMi41IiBzdHlsZT0ic3Ryb2tlOiMxODE4MTg7c3Ryb2tlLXdpZHRoOjAuNTsiIHdpZHRoPSIzNzkiIHg9IjExNyIgeT0iNDE1Ii8+PGVsbGlwc2UgY3g9IjI4OC4yNSIgY3k9IjQzMSIgZmlsbD0iI0FERDFCMiIgcng9IjExIiByeT0iMTEiIHN0eWxlPSJzdHJva2U6IzE4MTgxODtzdHJva2Utd2lkdGg6MS4wOyIvPjxwYXRoIGQ9Ik0yODUuODc1LDQzNS4yNSBMMjg1Ljg3NSw0MzcgTDI5MC44MTI1LDQzNyBMMjkwLjgxMjUsNDM1LjI1IEwyODUuODc1LDQzNS4yNSBaIE0yODYuNTYyNSw0MzUuOTM3NSBRMjg2LjU2MjUsNDM1LjkzNzUgMjg2LjU2MjUsNDI2Ljc1IEwyODQuODEyNSw0MjYuNzUgUTI4NC44MTI1LDQyNi43NSAyODQuODEyNSw0MzUuOTM3NSBMMjg2LjU2MjUsNDM1LjkzNzUgWiBNMjkwLjEyNSw0MzUuOTM3NSBMMjkxLjg3NSw0MzUuOTM3NSBRMjkxLjg3NSw0MzUuOTM3NSAyOTEuODc1LDQzMy4xMjUgTDI5MC4xMjUsNDMzLjEyNSBRMjkwLjEyNSw0MzMuMTI1IDI5MC4xMjUsNDM1LjkzNzUgWiBNMjkwLjEyNSw0MjYuNzUgUTI5MC4xMjUsNDI2Ljc1IDI5MC4xMjUsNDI5LjU2MjUgTDI5MS44NzUsNDI5LjU2MjUgUTI5MS44NzUsNDI5LjU2MjUgMjkxLjg3NSw0MjYuNzUgTDI5MC4xMjUsNDI2Ljc1IFogTTI4NS44NzUsNDI3LjQzNzUgTDI5MC44MTI1LDQyNy40Mzc1IEwyOTAuODEyNSw0MjUuNjg3NSBMMjg1Ljg3NSw0MjUuNjg3NSBMMjg1Ljg3NSw0MjcuNDM3NSBaICIgZmlsbD0iIzAwMDAwMCIvPjx0ZXh0IGZpbGw9IiMwMDAwMDAiIGZvbnQtZmFtaWx5PSJzYW5zLXNlcmlmIiBmb250LXNpemU9IjE0IiBsZW5ndGhBZGp1c3Q9InNwYWNpbmciIHRleHRMZW5ndGg9IjI4IiB4PSIzMDguNzUiIHk9IjQzNi43NDIyIj5CdWxsPC90ZXh0PjxsaW5lIHN0eWxlPSJzdHJva2U6IzE4MTgxODtzdHJva2Utd2lkdGg6MC41OyIgeDE9IjExOCIgeDI9IjQ5NSIgeTE9IjQ0NyIgeTI9IjQ0NyIvPjxsaW5lIHN0eWxlPSJzdHJva2U6IzE4MTgxODtzdHJva2Utd2lkdGg6MC41OyIgeDE9IjExOCIgeDI9IjQ5NSIgeTE9IjQ1NSIgeTI9IjQ1NSIvPjxlbGxpcHNlIGN4PSIxMjgiIGN5PSI0NjcuOTkyMiIgZmlsbD0iIzg0QkU4NCIgcng9IjMiIHJ5PSIzIiBzdHlsZT0ic3Ryb2tlOiMwMzgwNDg7c3Ryb2tlLXdpZHRoOjEuMDsiLz48dGV4dCBmaWxsPSIjMDAwMDAwIiBmb250LWZhbWlseT0ic2Fucy1zZXJpZiIgZm9udC1zaXplPSIxNCIgbGVuZ3RoQWRqdXN0PSJzcGFjaW5nIiB0ZXh0TGVuZ3RoPSIzNTMiIHg9IjEzNyIgeT0iNDcyLjIzNDQiPkJ1bGwoaW50IHJhbmdlLCBpbnQgZGFtYWdlLCBpbnQgaHAsIFJhcml0eSByYXJpdHkpPC90ZXh0PjwvZz48IS0tY2xhc3MgQ2FybC0tPjxnIGlkPSJlbGVtX0NhcmwiPjxyZWN0IGNvZGVMaW5lPSIzNSIgZmlsbD0iI0YxRjFGMSIgaGVpZ2h0PSI3Ny45Njg4IiBpZD0iQ2FybCIgcng9IjIuNSIgcnk9IjIuNSIgc3R5bGU9InN0cm9rZTojMTgxODE4O3N0cm9rZS13aWR0aDowLjU7IiB3aWR0aD0iMzc5IiB4PSI1MzEiIHk9IjQwNy41Ii8+PGVsbGlwc2UgY3g9IjcwMi4yNSIgY3k9IjQyMy41IiBmaWxsPSIjQUREMUIyIiByeD0iMTEiIHJ5PSIxMSIgc3R5bGU9InN0cm9rZTojMTgxODE4O3N0cm9rZS13aWR0aDoxLjA7Ii8+PHBhdGggZD0iTTY5OS44NzUsNDI3Ljc1IEw2OTkuODc1LDQyOS41IEw3MDQuODEyNSw0MjkuNSBMNzA0LjgxMjUsNDI3Ljc1IEw2OTkuODc1LDQyNy43NSBaIE03MDAuNTYyNSw0MjguNDM3NSBRNzAwLjU2MjUsNDI4LjQzNzUgNzAwLjU2MjUsNDE5LjI1IEw2OTguODEyNSw0MTkuMjUgUTY5OC44MTI1LDQxOS4yNSA2OTguODEyNSw0MjguNDM3NSBMNzAwLjU2MjUsNDI4LjQzNzUgWiBNNzA0LjEyNSw0MjguNDM3NSBMNzA1Ljg3NSw0MjguNDM3NSBRNzA1Ljg3NSw0MjguNDM3NSA3MDUuODc1LDQyNS42MjUgTDcwNC4xMjUsNDI1LjYyNSBRNzA0LjEyNSw0MjUuNjI1IDcwNC4xMjUsNDI4LjQzNzUgWiBNNzA0LjEyNSw0MTkuMjUgUTcwNC4xMjUsNDE5LjI1IDcwNC4xMjUsNDIyLjA2MjUgTDcwNS44NzUsNDIyLjA2MjUgUTcwNS44NzUsNDIyLjA2MjUgNzA1Ljg3NSw0MTkuMjUgTDcwNC4xMjUsNDE5LjI1IFogTTY5OS44NzUsNDE5LjkzNzUgTDcwNC44MTI1LDQxOS45Mzc1IEw3MDQuODEyNSw0MTguMTg3NSBMNjk5Ljg3NSw0MTguMTg3NSBMNjk5Ljg3NSw0MTkuOTM3NSBaICIgZmlsbD0iIzAwMDAwMCIvPjx0ZXh0IGZpbGw9IiMwMDAwMDAiIGZvbnQtZmFtaWx5PSJzYW5zLXNlcmlmIiBmb250LXNpemU9IjE0IiBsZW5ndGhBZGp1c3Q9InNwYWNpbmciIHRleHRMZW5ndGg9IjI4IiB4PSI3MjIuNzUiIHk9IjQyOS4yNDIyIj5DYXJsPC90ZXh0PjxsaW5lIHN0eWxlPSJzdHJva2U6IzE4MTgxODtzdHJva2Utd2lkdGg6MC41OyIgeDE9IjUzMiIgeDI9IjkwOSIgeTE9IjQzOS41IiB5Mj0iNDM5LjUiLz48bGluZSBzdHlsZT0ic3Ryb2tlOiMxODE4MTg7c3Ryb2tlLXdpZHRoOjAuNTsiIHgxPSI1MzIiIHgyPSI5MDkiIHkxPSI0NDcuNSIgeTI9IjQ0Ny41Ii8+PGVsbGlwc2UgY3g9IjU0MiIgY3k9IjQ2MC40OTIyIiBmaWxsPSIjODRCRTg0IiByeD0iMyIgcnk9IjMiIHN0eWxlPSJzdHJva2U6IzAzODA0ODtzdHJva2Utd2lkdGg6MS4wOyIvPjx0ZXh0IGZpbGw9IiMwMDAwMDAiIGZvbnQtZmFtaWx5PSJzYW5zLXNlcmlmIiBmb250LXNpemU9IjE0IiBsZW5ndGhBZGp1c3Q9InNwYWNpbmciIHRleHRMZW5ndGg9IjM1MyIgeD0iNTUxIiB5PSI0NjQuNzM0NCI+Q2FybChpbnQgcmFuZ2UsIGludCBkYW1hZ2UsIGludCBocCwgUmFyaXR5IHJhcml0eSk8L3RleHQ+PGVsbGlwc2UgY3g9IjU0MiIgY3k9IjQ3NS40NzY2IiBmaWxsPSIjODRCRTg0IiByeD0iMyIgcnk9IjMiIHN0eWxlPSJzdHJva2U6IzAzODA0ODtzdHJva2Utd2lkdGg6MS4wOyIvPjx0ZXh0IGZpbGw9IiMwMDAwMDAiIGZvbnQtZmFtaWx5PSJzYW5zLXNlcmlmIiBmb250LXNpemU9IjE0IiBsZW5ndGhBZGp1c3Q9InNwYWNpbmciIHRleHRMZW5ndGg9IjE0MiIgeD0iNTUxIiB5PSI0NzkuNzE4OCI+dm9pZCBzcGVjaWFsQXR0YWNrKCk8L3RleHQ+PC9nPjwhLS1jbGFzcyBDcm93LS0+PGcgaWQ9ImVsZW1fQ3JvdyI+PHJlY3QgY29kZUxpbmU9IjQwIiBmaWxsPSIjRjFGMUYxIiBoZWlnaHQ9Ijc3Ljk2ODgiIGlkPSJDcm93IiByeD0iMi41IiByeT0iMi41IiBzdHlsZT0ic3Ryb2tlOiMxODE4MTg7c3Ryb2tlLXdpZHRoOjAuNTsiIHdpZHRoPSIzODAiIHg9Ijk0NS41IiB5PSI0MDcuNSIvPjxlbGxpcHNlIGN4PSIxMTE2Ljc1IiBjeT0iNDIzLjUiIGZpbGw9IiNBREQxQjIiIHJ4PSIxMSIgcnk9IjExIiBzdHlsZT0ic3Ryb2tlOiMxODE4MTg7c3Ryb2tlLXdpZHRoOjEuMDsiLz48cGF0aCBkPSJNMTExNC4zNzUsNDI3Ljc1IEwxMTE0LjM3NSw0MjkuNSBMMTExOS4zMTI1LDQyOS41IEwxMTE5LjMxMjUsNDI3Ljc1IEwxMTE0LjM3NSw0MjcuNzUgWiBNMTExNS4wNjI1LDQyOC40Mzc1IFExMTE1LjA2MjUsNDI4LjQzNzUgMTExNS4wNjI1LDQxOS4yNSBMMTExMy4zMTI1LDQxOS4yNSBRMTExMy4zMTI1LDQxOS4yNSAxMTEzLjMxMjUsNDI4LjQzNzUgTDExMTUuMDYyNSw0MjguNDM3NSBaIE0xMTE4LjYyNSw0MjguNDM3NSBMMTEyMC4zNzUsNDI4LjQzNzUgUTExMjAuMzc1LDQyOC40Mzc1IDExMjAuMzc1LDQyNS42MjUgTDExMTguNjI1LDQyNS42MjUgUTExMTguNjI1LDQyNS42MjUgMTExOC42MjUsNDI4LjQzNzUgWiBNMTExOC42MjUsNDE5LjI1IFExMTE4LjYyNSw0MTkuMjUgMTExOC42MjUsNDIyLjA2MjUgTDExMjAuMzc1LDQyMi4wNjI1IFExMTIwLjM3NSw0MjIuMDYyNSAxMTIwLjM3NSw0MTkuMjUgTDExMTguNjI1LDQxOS4yNSBaIE0xMTE0LjM3NSw0MTkuOTM3NSBMMTExOS4zMTI1LDQxOS45Mzc1IEwxMTE5LjMxMjUsNDE4LjE4NzUgTDExMTQuMzc1LDQxOC4xODc1IEwxMTE0LjM3NSw0MTkuOTM3NSBaICIgZmlsbD0iIzAwMDAwMCIvPjx0ZXh0IGZpbGw9IiMwMDAwMDAiIGZvbnQtZmFtaWx5PSJzYW5zLXNlcmlmIiBmb250LXNpemU9IjE0IiBsZW5ndGhBZGp1c3Q9InNwYWNpbmciIHRleHRMZW5ndGg9IjI5IiB4PSIxMTM3LjI1IiB5PSI0MjkuMjQyMiI+Q3JvdzwvdGV4dD48bGluZSBzdHlsZT0ic3Ryb2tlOiMxODE4MTg7c3Ryb2tlLXdpZHRoOjAuNTsiIHgxPSI5NDYuNSIgeDI9IjEzMjQuNSIgeTE9IjQzOS41IiB5Mj0iNDM5LjUiLz48bGluZSBzdHlsZT0ic3Ryb2tlOiMxODE4MTg7c3Ryb2tlLXdpZHRoOjAuNTsiIHgxPSI5NDYuNSIgeDI9IjEzMjQuNSIgeTE9IjQ0Ny41IiB5Mj0iNDQ3LjUiLz48ZWxsaXBzZSBjeD0iOTU2LjUiIGN5PSI0NjAuNDkyMiIgZmlsbD0iIzg0QkU4NCIgcng9IjMiIHJ5PSIzIiBzdHlsZT0ic3Ryb2tlOiMwMzgwNDg7c3Ryb2tlLXdpZHRoOjEuMDsiLz48dGV4dCBmaWxsPSIjMDAwMDAwIiBmb250LWZhbWlseT0ic2Fucy1zZXJpZiIgZm9udC1zaXplPSIxNCIgbGVuZ3RoQWRqdXN0PSJzcGFjaW5nIiB0ZXh0TGVuZ3RoPSIzNTQiIHg9Ijk2NS41IiB5PSI0NjQuNzM0NCI+Q3JvdyhpbnQgcmFuZ2UsIGludCBkYW1hZ2UsIGludCBocCwgUmFyaXR5IHJhcml0eSk8L3RleHQ+PGVsbGlwc2UgY3g9Ijk1Ni41IiBjeT0iNDc1LjQ3NjYiIGZpbGw9IiM4NEJFODQiIHJ4PSIzIiByeT0iMyIgc3R5bGU9InN0cm9rZTojMDM4MDQ4O3N0cm9rZS13aWR0aDoxLjA7Ii8+PHRleHQgZmlsbD0iIzAwMDAwMCIgZm9udC1mYW1pbHk9InNhbnMtc2VyaWYiIGZvbnQtc2l6ZT0iMTQiIGxlbmd0aEFkanVzdD0ic3BhY2luZyIgdGV4dExlbmd0aD0iOTMiIHg9Ijk2NS41IiB5PSI0NzkuNzE4OCI+dm9pZCBwb2lzb24oKTwvdGV4dD48L2c+PCEtLWNsYXNzIE1hbmR5LS0+PGcgaWQ9ImVsZW1fTWFuZHkiPjxyZWN0IGNvZGVMaW5lPSI0NSIgZmlsbD0iI0YxRjFGMSIgaGVpZ2h0PSI3Ny45Njg4IiBpZD0iTWFuZHkiIHJ4PSIyLjUiIHJ5PSIyLjUiIHN0eWxlPSJzdHJva2U6IzE4MTgxODtzdHJva2Utd2lkdGg6MC41OyIgd2lkdGg9IjM4NiIgeD0iMTM2MC41IiB5PSI0MDcuNSIvPjxlbGxpcHNlIGN4PSIxNTMxLjc1IiBjeT0iNDIzLjUiIGZpbGw9IiNBREQxQjIiIHJ4PSIxMSIgcnk9IjExIiBzdHlsZT0ic3Ryb2tlOiMxODE4MTg7c3Ryb2tlLXdpZHRoOjEuMDsiLz48cGF0aCBkPSJNMTUyOS4zNzUsNDI3Ljc1IEwxNTI5LjM3NSw0MjkuNSBMMTUzNC4zMTI1LDQyOS41IEwxNTM0LjMxMjUsNDI3Ljc1IEwxNTI5LjM3NSw0MjcuNzUgWiBNMTUzMC4wNjI1LDQyOC40Mzc1IFExNTMwLjA2MjUsNDI4LjQzNzUgMTUzMC4wNjI1LDQxOS4yNSBMMTUyOC4zMTI1LDQxOS4yNSBRMTUyOC4zMTI1LDQxOS4yNSAxNTI4LjMxMjUsNDI4LjQzNzUgTDE1MzAuMDYyNSw0MjguNDM3NSBaIE0xNTMzLjYyNSw0MjguNDM3NSBMMTUzNS4zNzUsNDI4LjQzNzUgUTE1MzUuMzc1LDQyOC40Mzc1IDE1MzUuMzc1LDQyNS42MjUgTDE1MzMuNjI1LDQyNS42MjUgUTE1MzMuNjI1LDQyNS42MjUgMTUzMy42MjUsNDI4LjQzNzUgWiBNMTUzMy42MjUsNDE5LjI1IFExNTMzLjYyNSw0MTkuMjUgMTUzMy42MjUsNDIyLjA2MjUgTDE1MzUuMzc1LDQyMi4wNjI1IFExNTM1LjM3NSw0MjIuMDYyNSAxNTM1LjM3NSw0MTkuMjUgTDE1MzMuNjI1LDQxOS4yNSBaIE0xNTI5LjM3NSw0MTkuOTM3NSBMMTUzNC4zMTI1LDQxOS45Mzc1IEwxNTM0LjMxMjUsNDE4LjE4NzUgTDE1MjkuMzc1LDQxOC4xODc1IEwxNTI5LjM3NSw0MTkuOTM3NSBaICIgZmlsbD0iIzAwMDAwMCIvPjx0ZXh0IGZpbGw9IiMwMDAwMDAiIGZvbnQtZmFtaWx5PSJzYW5zLXNlcmlmIiBmb250LXNpemU9IjE0IiBsZW5ndGhBZGp1c3Q9InNwYWNpbmciIHRleHRMZW5ndGg9IjM1IiB4PSIxNTUyLjI1IiB5PSI0MjkuMjQyMiI+TWFuZHk8L3RleHQ+PGxpbmUgc3R5bGU9InN0cm9rZTojMTgxODE4O3N0cm9rZS13aWR0aDowLjU7IiB4MT0iMTM2MS41IiB4Mj0iMTc0NS41IiB5MT0iNDM5LjUiIHkyPSI0MzkuNSIvPjxsaW5lIHN0eWxlPSJzdHJva2U6IzE4MTgxODtzdHJva2Utd2lkdGg6MC41OyIgeDE9IjEzNjEuNSIgeDI9IjE3NDUuNSIgeTE9IjQ0Ny41IiB5Mj0iNDQ3LjUiLz48ZWxsaXBzZSBjeD0iMTM3MS41IiBjeT0iNDYwLjQ5MjIiIGZpbGw9IiM4NEJFODQiIHJ4PSIzIiByeT0iMyIgc3R5bGU9InN0cm9rZTojMDM4MDQ4O3N0cm9rZS13aWR0aDoxLjA7Ii8+PHRleHQgZmlsbD0iIzAwMDAwMCIgZm9udC1mYW1pbHk9InNhbnMtc2VyaWYiIGZvbnQtc2l6ZT0iMTQiIGxlbmd0aEFkanVzdD0ic3BhY2luZyIgdGV4dExlbmd0aD0iMzYwIiB4PSIxMzgwLjUiIHk9IjQ2NC43MzQ0Ij5NYW5keShpbnQgcmFuZ2UsIGludCBkYW1hZ2UsIGludCBocCwgUmFyaXR5IHJhcml0eSk8L3RleHQ+PGVsbGlwc2UgY3g9IjEzNzEuNSIgY3k9IjQ3NS40NzY2IiBmaWxsPSIjODRCRTg0IiByeD0iMyIgcnk9IjMiIHN0eWxlPSJzdHJva2U6IzAzODA0ODtzdHJva2Utd2lkdGg6MS4wOyIvPjx0ZXh0IGZpbGw9IiMwMDAwMDAiIGZvbnQtZmFtaWx5PSJzYW5zLXNlcmlmIiBmb250LXNpemU9IjE0IiBsZW5ndGhBZGp1c3Q9InNwYWNpbmciIHRleHRMZW5ndGg9IjE0OSIgeD0iMTM4MC41IiB5PSI0NzkuNzE4OCI+dm9pZCByYW5nZUV4dGVuY2lvbigpPC90ZXh0PjwvZz48IS0tY2xhc3MgTW9ydGlzLS0+PGcgaWQ9ImVsZW1fTW9ydGlzIj48cmVjdCBjb2RlTGluZT0iNTAiIGZpbGw9IiNGMUYxRjEiIGhlaWdodD0iNzcuOTY4OCIgaWQ9Ik1vcnRpcyIgcng9IjIuNSIgcnk9IjIuNSIgc3R5bGU9InN0cm9rZTojMTgxODE4O3N0cm9rZS13aWR0aDowLjU7IiB3aWR0aD0iMzkzIiB4PSIxNzgyIiB5PSI0MDcuNSIvPjxlbGxpcHNlIGN4PSIxOTUzLjI1IiBjeT0iNDIzLjUiIGZpbGw9IiNBREQxQjIiIHJ4PSIxMSIgcnk9IjExIiBzdHlsZT0ic3Ryb2tlOiMxODE4MTg7c3Ryb2tlLXdpZHRoOjEuMDsiLz48cGF0aCBkPSJNMTk1MC44NzUsNDI3Ljc1IEwxOTUwLjg3NSw0MjkuNSBMMTk1NS44MTI1LDQyOS41IEwxOTU1LjgxMjUsNDI3Ljc1IEwxOTUwLjg3NSw0MjcuNzUgWiBNMTk1MS41NjI1LDQyOC40Mzc1IFExOTUxLjU2MjUsNDI4LjQzNzUgMTk1MS41NjI1LDQxOS4yNSBMMTk0OS44MTI1LDQxOS4yNSBRMTk0OS44MTI1LDQxOS4yNSAxOTQ5LjgxMjUsNDI4LjQzNzUgTDE5NTEuNTYyNSw0MjguNDM3NSBaIE0xOTU1LjEyNSw0MjguNDM3NSBMMTk1Ni44NzUsNDI4LjQzNzUgUTE5NTYuODc1LDQyOC40Mzc1IDE5NTYuODc1LDQyNS42MjUgTDE5NTUuMTI1LDQyNS42MjUgUTE5NTUuMTI1LDQyNS42MjUgMTk1NS4xMjUsNDI4LjQzNzUgWiBNMTk1NS4xMjUsNDE5LjI1IFExOTU1LjEyNSw0MTkuMjUgMTk1NS4xMjUsNDIyLjA2MjUgTDE5NTYuODc1LDQyMi4wNjI1IFExOTU2Ljg3NSw0MjIuMDYyNSAxOTU2Ljg3NSw0MTkuMjUgTDE5NTUuMTI1LDQxOS4yNSBaIE0xOTUwLjg3NSw0MTkuOTM3NSBMMTk1NS44MTI1LDQxOS45Mzc1IEwxOTU1LjgxMjUsNDE4LjE4NzUgTDE5NTAuODc1LDQxOC4xODc1IEwxOTUwLjg3NSw0MTkuOTM3NSBaICIgZmlsbD0iIzAwMDAwMCIvPjx0ZXh0IGZpbGw9IiMwMDAwMDAiIGZvbnQtZmFtaWx5PSJzYW5zLXNlcmlmIiBmb250LXNpemU9IjE0IiBsZW5ndGhBZGp1c3Q9InNwYWNpbmciIHRleHRMZW5ndGg9IjQyIiB4PSIxOTczLjc1IiB5PSI0MjkuMjQyMiI+TW9ydGlzPC90ZXh0PjxsaW5lIHN0eWxlPSJzdHJva2U6IzE4MTgxODtzdHJva2Utd2lkdGg6MC41OyIgeDE9IjE3ODMiIHgyPSIyMTc0IiB5MT0iNDM5LjUiIHkyPSI0MzkuNSIvPjxsaW5lIHN0eWxlPSJzdHJva2U6IzE4MTgxODtzdHJva2Utd2lkdGg6MC41OyIgeDE9IjE3ODMiIHgyPSIyMTc0IiB5MT0iNDQ3LjUiIHkyPSI0NDcuNSIvPjxlbGxpcHNlIGN4PSIxNzkzIiBjeT0iNDYwLjQ5MjIiIGZpbGw9IiM4NEJFODQiIHJ4PSIzIiByeT0iMyIgc3R5bGU9InN0cm9rZTojMDM4MDQ4O3N0cm9rZS13aWR0aDoxLjA7Ii8+PHRleHQgZmlsbD0iIzAwMDAwMCIgZm9udC1mYW1pbHk9InNhbnMtc2VyaWYiIGZvbnQtc2l6ZT0iMTQiIGxlbmd0aEFkanVzdD0ic3BhY2luZyIgdGV4dExlbmd0aD0iMzY3IiB4PSIxODAyIiB5PSI0NjQuNzM0NCI+TW9ydGlzKGludCByYW5nZSwgaW50IGRhbWFnZSwgaW50IGhwLCBSYXJpdHkgcmFyaXR5KTwvdGV4dD48ZWxsaXBzZSBjeD0iMTc5MyIgY3k9IjQ3NS40NzY2IiBmaWxsPSIjODRCRTg0IiByeD0iMyIgcnk9IjMiIHN0eWxlPSJzdHJva2U6IzAzODA0ODtzdHJva2Utd2lkdGg6MS4wOyIvPjx0ZXh0IGZpbGw9IiMwMDAwMDAiIGZvbnQtZmFtaWx5PSJzYW5zLXNlcmlmIiBmb250LXNpemU9IjE0IiBsZW5ndGhBZGp1c3Q9InNwYWNpbmciIHRleHRMZW5ndGg9IjEzNSIgeD0iMTgwMiIgeT0iNDc5LjcxODgiPnZvaWQgZGFzaEFiaWxsaXR5KCk8L3RleHQ+PC9nPjwhLS1jbGFzcyBQaXBlci0tPjxnIGlkPSJlbGVtX1BpcGVyIj48cmVjdCBjb2RlTGluZT0iNTUiIGZpbGw9IiNGMUYxRjEiIGhlaWdodD0iNjIuOTg0NCIgaWQ9IlBpcGVyIiByeD0iMi41IiByeT0iMi41IiBzdHlsZT0ic3Ryb2tlOiMxODE4MTg7c3Ryb2tlLXdpZHRoOjAuNTsiIHdpZHRoPSIzODYiIHg9IjIyMTAuNSIgeT0iNDE1Ii8+PGVsbGlwc2UgY3g9IjIzODEuNzUiIGN5PSI0MzEiIGZpbGw9IiNBREQxQjIiIHJ4PSIxMSIgcnk9IjExIiBzdHlsZT0ic3Ryb2tlOiMxODE4MTg7c3Ryb2tlLXdpZHRoOjEuMDsiLz48cGF0aCBkPSJNMjM3OS4zNzUsNDM1LjI1IEwyMzc5LjM3NSw0MzcgTDIzODQuMzEyNSw0MzcgTDIzODQuMzEyNSw0MzUuMjUgTDIzNzkuMzc1LDQzNS4yNSBaIE0yMzgwLjA2MjUsNDM1LjkzNzUgUTIzODAuMDYyNSw0MzUuOTM3NSAyMzgwLjA2MjUsNDI2Ljc1IEwyMzc4LjMxMjUsNDI2Ljc1IFEyMzc4LjMxMjUsNDI2Ljc1IDIzNzguMzEyNSw0MzUuOTM3NSBMMjM4MC4wNjI1LDQzNS45Mzc1IFogTTIzODMuNjI1LDQzNS45Mzc1IEwyMzg1LjM3NSw0MzUuOTM3NSBRMjM4NS4zNzUsNDM1LjkzNzUgMjM4NS4zNzUsNDMzLjEyNSBMMjM4My42MjUsNDMzLjEyNSBRMjM4My42MjUsNDMzLjEyNSAyMzgzLjYyNSw0MzUuOTM3NSBaIE0yMzgzLjYyNSw0MjYuNzUgUTIzODMuNjI1LDQyNi43NSAyMzgzLjYyNSw0MjkuNTYyNSBMMjM4NS4zNzUsNDI5LjU2MjUgUTIzODUuMzc1LDQyOS41NjI1IDIzODUuMzc1LDQyNi43NSBMMjM4My42MjUsNDI2Ljc1IFogTTIzNzkuMzc1LDQyNy40Mzc1IEwyMzg0LjMxMjUsNDI3LjQzNzUgTDIzODQuMzEyNSw0MjUuNjg3NSBMMjM3OS4zNzUsNDI1LjY4NzUgTDIzNzkuMzc1LDQyNy40Mzc1IFogIiBmaWxsPSIjMDAwMDAwIi8+PHRleHQgZmlsbD0iIzAwMDAwMCIgZm9udC1mYW1pbHk9InNhbnMtc2VyaWYiIGZvbnQtc2l6ZT0iMTQiIGxlbmd0aEFkanVzdD0ic3BhY2luZyIgdGV4dExlbmd0aD0iMzUiIHg9IjI0MDIuMjUiIHk9IjQzNi43NDIyIj5QaXBlcjwvdGV4dD48bGluZSBzdHlsZT0ic3Ryb2tlOiMxODE4MTg7c3Ryb2tlLXdpZHRoOjAuNTsiIHgxPSIyMjExLjUiIHgyPSIyNTk1LjUiIHkxPSI0NDciIHkyPSI0NDciLz48bGluZSBzdHlsZT0ic3Ryb2tlOiMxODE4MTg7c3Ryb2tlLXdpZHRoOjAuNTsiIHgxPSIyMjExLjUiIHgyPSIyNTk1LjUiIHkxPSI0NTUiIHkyPSI0NTUiLz48ZWxsaXBzZSBjeD0iMjIyMS41IiBjeT0iNDY3Ljk5MjIiIGZpbGw9IiM4NEJFODQiIHJ4PSIzIiByeT0iMyIgc3R5bGU9InN0cm9rZTojMDM4MDQ4O3N0cm9rZS13aWR0aDoxLjA7Ii8+PHRleHQgZmlsbD0iIzAwMDAwMCIgZm9udC1mYW1pbHk9InNhbnMtc2VyaWYiIGZvbnQtc2l6ZT0iMTQiIGxlbmd0aEFkanVzdD0ic3BhY2luZyIgdGV4dExlbmd0aD0iMzYwIiB4PSIyMjMwLjUiIHk9IjQ3Mi4yMzQ0Ij5QaXBlcihpbnQgcmFuZ2UsIGludCBkYW1hZ2UsIGludCBocCwgUmFyaXR5IHJhcml0eSk8L3RleHQ+PC9nPjwhLS1jbGFzcyBQb2NvLS0+PGcgaWQ9ImVsZW1fUG9jbyI+PHJlY3QgY29kZUxpbmU9IjU5IiBmaWxsPSIjRjFGMUYxIiBoZWlnaHQ9Ijc3Ljk2ODgiIGlkPSJQb2NvIiByeD0iMi41IiByeT0iMi41IiBzdHlsZT0ic3Ryb2tlOiMxODE4MTg7c3Ryb2tlLXdpZHRoOjAuNTsiIHdpZHRoPSIzNzkiIHg9IjI2MzIiIHk9IjQwNy41Ii8+PGVsbGlwc2UgY3g9IjI4MDMuMjUiIGN5PSI0MjMuNSIgZmlsbD0iI0FERDFCMiIgcng9IjExIiByeT0iMTEiIHN0eWxlPSJzdHJva2U6IzE4MTgxODtzdHJva2Utd2lkdGg6MS4wOyIvPjxwYXRoIGQ9Ik0yODAwLjg3NSw0MjcuNzUgTDI4MDAuODc1LDQyOS41IEwyODA1LjgxMjUsNDI5LjUgTDI4MDUuODEyNSw0MjcuNzUgTDI4MDAuODc1LDQyNy43NSBaIE0yODAxLjU2MjUsNDI4LjQzNzUgUTI4MDEuNTYyNSw0MjguNDM3NSAyODAxLjU2MjUsNDE5LjI1IEwyNzk5LjgxMjUsNDE5LjI1IFEyNzk5LjgxMjUsNDE5LjI1IDI3OTkuODEyNSw0MjguNDM3NSBMMjgwMS41NjI1LDQyOC40Mzc1IFogTTI4MDUuMTI1LDQyOC40Mzc1IEwyODA2Ljg3NSw0MjguNDM3NSBRMjgwNi44NzUsNDI4LjQzNzUgMjgwNi44NzUsNDI1LjYyNSBMMjgwNS4xMjUsNDI1LjYyNSBRMjgwNS4xMjUsNDI1LjYyNSAyODA1LjEyNSw0MjguNDM3NSBaIE0yODA1LjEyNSw0MTkuMjUgUTI4MDUuMTI1LDQxOS4yNSAyODA1LjEyNSw0MjIuMDYyNSBMMjgwNi44NzUsNDIyLjA2MjUgUTI4MDYuODc1LDQyMi4wNjI1IDI4MDYuODc1LDQxOS4yNSBMMjgwNS4xMjUsNDE5LjI1IFogTTI4MDAuODc1LDQxOS45Mzc1IEwyODA1LjgxMjUsNDE5LjkzNzUgTDI4MDUuODEyNSw0MTguMTg3NSBMMjgwMC44NzUsNDE4LjE4NzUgTDI4MDAuODc1LDQxOS45Mzc1IFogIiBmaWxsPSIjMDAwMDAwIi8+PHRleHQgZmlsbD0iIzAwMDAwMCIgZm9udC1mYW1pbHk9InNhbnMtc2VyaWYiIGZvbnQtc2l6ZT0iMTQiIGxlbmd0aEFkanVzdD0ic3BhY2luZyIgdGV4dExlbmd0aD0iMjgiIHg9IjI4MjMuNzUiIHk9IjQyOS4yNDIyIj5Qb2NvPC90ZXh0PjxsaW5lIHN0eWxlPSJzdHJva2U6IzE4MTgxODtzdHJva2Utd2lkdGg6MC41OyIgeDE9IjI2MzMiIHgyPSIzMDEwIiB5MT0iNDM5LjUiIHkyPSI0MzkuNSIvPjxsaW5lIHN0eWxlPSJzdHJva2U6IzE4MTgxODtzdHJva2Utd2lkdGg6MC41OyIgeDE9IjI2MzMiIHgyPSIzMDEwIiB5MT0iNDQ3LjUiIHkyPSI0NDcuNSIvPjxlbGxpcHNlIGN4PSIyNjQzIiBjeT0iNDYwLjQ5MjIiIGZpbGw9IiM4NEJFODQiIHJ4PSIzIiByeT0iMyIgc3R5bGU9InN0cm9rZTojMDM4MDQ4O3N0cm9rZS13aWR0aDoxLjA7Ii8+PHRleHQgZmlsbD0iIzAwMDAwMCIgZm9udC1mYW1pbHk9InNhbnMtc2VyaWYiIGZvbnQtc2l6ZT0iMTQiIGxlbmd0aEFkanVzdD0ic3BhY2luZyIgdGV4dExlbmd0aD0iMzUzIiB4PSIyNjUyIiB5PSI0NjQuNzM0NCI+UG9jbyhpbnQgcmFuZ2UsIGludCBkYW1hZ2UsIGludCBocCwgUmFyaXR5IHJhcml0eSk8L3RleHQ+PGVsbGlwc2UgY3g9IjI2NDMiIGN5PSI0NzUuNDc2NiIgZmlsbD0iIzg0QkU4NCIgcng9IjMiIHJ5PSIzIiBzdHlsZT0ic3Ryb2tlOiMwMzgwNDg7c3Ryb2tlLXdpZHRoOjEuMDsiLz48dGV4dCBmaWxsPSIjMDAwMDAwIiBmb250LWZhbWlseT0ic2Fucy1zZXJpZiIgZm9udC1zaXplPSIxNCIgbGVuZ3RoQWRqdXN0PSJzcGFjaW5nIiB0ZXh0TGVuZ3RoPSIxMDAiIHg9IjI2NTIiIHk9IjQ3OS43MTg4Ij52b2lkIGhlYWxpbmcoKTwvdGV4dD48L2c+PCEtLWNsYXNzIFNoZWxseS0tPjxnIGlkPSJlbGVtX1NoZWxseSI+PHJlY3QgY29kZUxpbmU9IjY0IiBmaWxsPSIjRjFGMUYxIiBoZWlnaHQ9IjYyLjk4NDQiIGlkPSJTaGVsbHkiIHJ4PSIyLjUiIHJ5PSIyLjUiIHN0eWxlPSJzdHJva2U6IzE4MTgxODtzdHJva2Utd2lkdGg6MC41OyIgd2lkdGg9IjM5MyIgeD0iMzA0NiIgeT0iNDE1Ii8+PGVsbGlwc2UgY3g9IjMyMTcuMjUiIGN5PSI0MzEiIGZpbGw9IiNBREQxQjIiIHJ4PSIxMSIgcnk9IjExIiBzdHlsZT0ic3Ryb2tlOiMxODE4MTg7c3Ryb2tlLXdpZHRoOjEuMDsiLz48cGF0aCBkPSJNMzIxNC44NzUsNDM1LjI1IEwzMjE0Ljg3NSw0MzcgTDMyMTkuODEyNSw0MzcgTDMyMTkuODEyNSw0MzUuMjUgTDMyMTQuODc1LDQzNS4yNSBaIE0zMjE1LjU2MjUsNDM1LjkzNzUgUTMyMTUuNTYyNSw0MzUuOTM3NSAzMjE1LjU2MjUsNDI2Ljc1IEwzMjEzLjgxMjUsNDI2Ljc1IFEzMjEzLjgxMjUsNDI2Ljc1IDMyMTMuODEyNSw0MzUuOTM3NSBMMzIxNS41NjI1LDQzNS45Mzc1IFogTTMyMTkuMTI1LDQzNS45Mzc1IEwzMjIwLjg3NSw0MzUuOTM3NSBRMzIyMC44NzUsNDM1LjkzNzUgMzIyMC44NzUsNDMzLjEyNSBMMzIxOS4xMjUsNDMzLjEyNSBRMzIxOS4xMjUsNDMzLjEyNSAzMjE5LjEyNSw0MzUuOTM3NSBaIE0zMjE5LjEyNSw0MjYuNzUgUTMyMTkuMTI1LDQyNi43NSAzMjE5LjEyNSw0MjkuNTYyNSBMMzIyMC44NzUsNDI5LjU2MjUgUTMyMjAuODc1LDQyOS41NjI1IDMyMjAuODc1LDQyNi43NSBMMzIxOS4xMjUsNDI2Ljc1IFogTTMyMTQuODc1LDQyNy40Mzc1IEwzMjE5LjgxMjUsNDI3LjQzNzUgTDMyMTkuODEyNSw0MjUuNjg3NSBMMzIxNC44NzUsNDI1LjY4NzUgTDMyMTQuODc1LDQyNy40Mzc1IFogIiBmaWxsPSIjMDAwMDAwIi8+PHRleHQgZmlsbD0iIzAwMDAwMCIgZm9udC1mYW1pbHk9InNhbnMtc2VyaWYiIGZvbnQtc2l6ZT0iMTQiIGxlbmd0aEFkanVzdD0ic3BhY2luZyIgdGV4dExlbmd0aD0iNDIiIHg9IjMyMzcuNzUiIHk9IjQzNi43NDIyIj5TaGVsbHk8L3RleHQ+PGxpbmUgc3R5bGU9InN0cm9rZTojMTgxODE4O3N0cm9rZS13aWR0aDowLjU7IiB4MT0iMzA0NyIgeDI9IjM0MzgiIHkxPSI0NDciIHkyPSI0NDciLz48bGluZSBzdHlsZT0ic3Ryb2tlOiMxODE4MTg7c3Ryb2tlLXdpZHRoOjAuNTsiIHgxPSIzMDQ3IiB4Mj0iMzQzOCIgeTE9IjQ1NSIgeTI9IjQ1NSIvPjxlbGxpcHNlIGN4PSIzMDU3IiBjeT0iNDY3Ljk5MjIiIGZpbGw9IiM4NEJFODQiIHJ4PSIzIiByeT0iMyIgc3R5bGU9InN0cm9rZTojMDM4MDQ4O3N0cm9rZS13aWR0aDoxLjA7Ii8+PHRleHQgZmlsbD0iIzAwMDAwMCIgZm9udC1mYW1pbHk9InNhbnMtc2VyaWYiIGZvbnQtc2l6ZT0iMTQiIGxlbmd0aEFkanVzdD0ic3BhY2luZyIgdGV4dExlbmd0aD0iMzY3IiB4PSIzMDY2IiB5PSI0NzIuMjM0NCI+U2hlbGx5KGludCByYW5nZSwgaW50IGRhbWFnZSwgaW50IGhwLCBSYXJpdHkgcmFyaXR5KTwvdGV4dD48L2c+PCEtLWNsYXNzIFN1cmdlLS0+PGcgaWQ9ImVsZW1fU3VyZ2UiPjxyZWN0IGNvZGVMaW5lPSI2OCIgZmlsbD0iI0YxRjFGMSIgaGVpZ2h0PSI3Ny45Njg4IiBpZD0iU3VyZ2UiIHJ4PSIyLjUiIHJ5PSIyLjUiIHN0eWxlPSJzdHJva2U6IzE4MTgxODtzdHJva2Utd2lkdGg6MC41OyIgd2lkdGg9IjM4NiIgeD0iMzQ3NC41IiB5PSI0MDcuNSIvPjxlbGxpcHNlIGN4PSIzNjQ1Ljc1IiBjeT0iNDIzLjUiIGZpbGw9IiNBREQxQjIiIHJ4PSIxMSIgcnk9IjExIiBzdHlsZT0ic3Ryb2tlOiMxODE4MTg7c3Ryb2tlLXdpZHRoOjEuMDsiLz48cGF0aCBkPSJNMzY0My4zNzUsNDI3Ljc1IEwzNjQzLjM3NSw0MjkuNSBMMzY0OC4zMTI1LDQyOS41IEwzNjQ4LjMxMjUsNDI3Ljc1IEwzNjQzLjM3NSw0MjcuNzUgWiBNMzY0NC4wNjI1LDQyOC40Mzc1IFEzNjQ0LjA2MjUsNDI4LjQzNzUgMzY0NC4wNjI1LDQxOS4yNSBMMzY0Mi4zMTI1LDQxOS4yNSBRMzY0Mi4zMTI1LDQxOS4yNSAzNjQyLjMxMjUsNDI4LjQzNzUgTDM2NDQuMDYyNSw0MjguNDM3NSBaIE0zNjQ3LjYyNSw0MjguNDM3NSBMMzY0OS4zNzUsNDI4LjQzNzUgUTM2NDkuMzc1LDQyOC40Mzc1IDM2NDkuMzc1LDQyNS42MjUgTDM2NDcuNjI1LDQyNS42MjUgUTM2NDcuNjI1LDQyNS42MjUgMzY0Ny42MjUsNDI4LjQzNzUgWiBNMzY0Ny42MjUsNDE5LjI1IFEzNjQ3LjYyNSw0MTkuMjUgMzY0Ny42MjUsNDIyLjA2MjUgTDM2NDkuMzc1LDQyMi4wNjI1IFEzNjQ5LjM3NSw0MjIuMDYyNSAzNjQ5LjM3NSw0MTkuMjUgTDM2NDcuNjI1LDQxOS4yNSBaIE0zNjQzLjM3NSw0MTkuOTM3NSBMMzY0OC4zMTI1LDQxOS45Mzc1IEwzNjQ4LjMxMjUsNDE4LjE4NzUgTDM2NDMuMzc1LDQxOC4xODc1IEwzNjQzLjM3NSw0MTkuOTM3NSBaICIgZmlsbD0iIzAwMDAwMCIvPjx0ZXh0IGZpbGw9IiMwMDAwMDAiIGZvbnQtZmFtaWx5PSJzYW5zLXNlcmlmIiBmb250LXNpemU9IjE0IiBsZW5ndGhBZGp1c3Q9InNwYWNpbmciIHRleHRMZW5ndGg9IjM1IiB4PSIzNjY2LjI1IiB5PSI0MjkuMjQyMiI+U3VyZ2U8L3RleHQ+PGxpbmUgc3R5bGU9InN0cm9rZTojMTgxODE4O3N0cm9rZS13aWR0aDowLjU7IiB4MT0iMzQ3NS41IiB4Mj0iMzg1OS41IiB5MT0iNDM5LjUiIHkyPSI0MzkuNSIvPjxsaW5lIHN0eWxlPSJzdHJva2U6IzE4MTgxODtzdHJva2Utd2lkdGg6MC41OyIgeDE9IjM0NzUuNSIgeDI9IjM4NTkuNSIgeTE9IjQ0Ny41IiB5Mj0iNDQ3LjUiLz48ZWxsaXBzZSBjeD0iMzQ4NS41IiBjeT0iNDYwLjQ5MjIiIGZpbGw9IiM4NEJFODQiIHJ4PSIzIiByeT0iMyIgc3R5bGU9InN0cm9rZTojMDM4MDQ4O3N0cm9rZS13aWR0aDoxLjA7Ii8+PHRleHQgZmlsbD0iIzAwMDAwMCIgZm9udC1mYW1pbHk9InNhbnMtc2VyaWYiIGZvbnQtc2l6ZT0iMTQiIGxlbmd0aEFkanVzdD0ic3BhY2luZyIgdGV4dExlbmd0aD0iMzYwIiB4PSIzNDk0LjUiIHk9IjQ2NC43MzQ0Ij5TdXJnZShpbnQgcmFuZ2UsIGludCBkYW1hZ2UsIGludCBocCwgUmFyaXR5IHJhcml0eSk8L3RleHQ+PGVsbGlwc2UgY3g9IjM0ODUuNSIgY3k9IjQ3NS40NzY2IiBmaWxsPSIjODRCRTg0IiByeD0iMyIgcnk9IjMiIHN0eWxlPSJzdHJva2U6IzAzODA0ODtzdHJva2Utd2lkdGg6MS4wOyIvPjx0ZXh0IGZpbGw9IiMwMDAwMDAiIGZvbnQtZmFtaWx5PSJzYW5zLXNlcmlmIiBmb250LXNpemU9IjE0IiBsZW5ndGhBZGp1c3Q9InNwYWNpbmciIHRleHRMZW5ndGg9IjEwMCIgeD0iMzQ5NC41IiB5PSI0NzkuNzE4OCI+dm9pZCB1cGdyYWRlKCk8L3RleHQ+PC9nPjwhLS1jbGFzcyBGdWxsTWFwLS0+PGcgaWQ9ImVsZW1fRnVsbE1hcCI+PHJlY3QgY29kZUxpbmU9Ijc0IiBmaWxsPSIjRjFGMUYxIiBoZWlnaHQ9IjEwNy45Mzc1IiBpZD0iRnVsbE1hcCIgcng9IjIuNSIgcnk9IjIuNSIgc3R5bGU9InN0cm9rZTojMTgxODE4O3N0cm9rZS13aWR0aDowLjU7IiB3aWR0aD0iMzA4IiB4PSIzOTEzLjUiIHk9Ijk3Ii8+PGVsbGlwc2UgY3g9IjQwMzguNzUiIGN5PSIxMTMiIGZpbGw9IiNBREQxQjIiIHJ4PSIxMSIgcnk9IjExIiBzdHlsZT0ic3Ryb2tlOiMxODE4MTg7c3Ryb2tlLXdpZHRoOjEuMDsiLz48cGF0aCBkPSJNNDAzNi4zNzUsMTE3LjI1IEw0MDM2LjM3NSwxMTkgTDQwNDEuMzEyNSwxMTkgTDQwNDEuMzEyNSwxMTcuMjUgTDQwMzYuMzc1LDExNy4yNSBaIE00MDM3LjA2MjUsMTE3LjkzNzUgUTQwMzcuMDYyNSwxMTcuOTM3NSA0MDM3LjA2MjUsMTA4Ljc1IEw0MDM1LjMxMjUsMTA4Ljc1IFE0MDM1LjMxMjUsMTA4Ljc1IDQwMzUuMzEyNSwxMTcuOTM3NSBMNDAzNy4wNjI1LDExNy45Mzc1IFogTTQwNDAuNjI1LDExNy45Mzc1IEw0MDQyLjM3NSwxMTcuOTM3NSBRNDA0Mi4zNzUsMTE3LjkzNzUgNDA0Mi4zNzUsMTE1LjEyNSBMNDA0MC42MjUsMTE1LjEyNSBRNDA0MC42MjUsMTE1LjEyNSA0MDQwLjYyNSwxMTcuOTM3NSBaIE00MDQwLjYyNSwxMDguNzUgUTQwNDAuNjI1LDEwOC43NSA0MDQwLjYyNSwxMTEuNTYyNSBMNDA0Mi4zNzUsMTExLjU2MjUgUTQwNDIuMzc1LDExMS41NjI1IDQwNDIuMzc1LDEwOC43NSBMNDA0MC42MjUsMTA4Ljc1IFogTTQwMzYuMzc1LDEwOS40Mzc1IEw0MDQxLjMxMjUsMTA5LjQzNzUgTDQwNDEuMzEyNSwxMDcuNjg3NSBMNDAzNi4zNzUsMTA3LjY4NzUgTDQwMzYuMzc1LDEwOS40Mzc1IFogIiBmaWxsPSIjMDAwMDAwIi8+PHRleHQgZmlsbD0iIzAwMDAwMCIgZm9udC1mYW1pbHk9InNhbnMtc2VyaWYiIGZvbnQtc2l6ZT0iMTQiIGxlbmd0aEFkanVzdD0ic3BhY2luZyIgdGV4dExlbmd0aD0iNDkiIHg9IjQwNTkuMjUiIHk9IjExOC43NDIyIj5GdWxsTWFwPC90ZXh0PjxsaW5lIHN0eWxlPSJzdHJva2U6IzE4MTgxODtzdHJva2Utd2lkdGg6MC41OyIgeDE9IjM5MTQuNSIgeDI9IjQyMjAuNSIgeTE9IjEyOSIgeTI9IjEyOSIvPjxyZWN0IGZpbGw9Im5vbmUiIGhlaWdodD0iNiIgc3R5bGU9InN0cm9rZTojQzgyOTMwO3N0cm9rZS13aWR0aDoxLjA7IiB3aWR0aD0iNiIgeD0iMzkyMS41IiB5PSIxMzguOTkyMiIvPjx0ZXh0IGZpbGw9IiMwMDAwMDAiIGZvbnQtZmFtaWx5PSJzYW5zLXNlcmlmIiBmb250LXNpemU9IjE0IiBsZW5ndGhBZGp1c3Q9InNwYWNpbmciIHRleHRMZW5ndGg9IjIxNyIgeD0iMzkzMy41IiB5PSIxNDYuMjM0NCI+TWFwJmx0O1N0cmluZywgTG9jYXRpb24mZ3Q7IGxvY2F0aW9uczwvdGV4dD48bGluZSBzdHlsZT0ic3Ryb2tlOiMxODE4MTg7c3Ryb2tlLXdpZHRoOjAuNTsiIHgxPSIzOTE0LjUiIHgyPSI0MjIwLjUiIHkxPSIxNTEuOTg0NCIgeTI9IjE1MS45ODQ0Ii8+PGVsbGlwc2UgY3g9IjM5MjQuNSIgY3k9IjE2NC45NzY2IiBmaWxsPSIjODRCRTg0IiByeD0iMyIgcnk9IjMiIHN0eWxlPSJzdHJva2U6IzAzODA0ODtzdHJva2Utd2lkdGg6MS4wOyIvPjx0ZXh0IGZpbGw9IiMwMDAwMDAiIGZvbnQtZmFtaWx5PSJzYW5zLXNlcmlmIiBmb250LXNpemU9IjE0IiBsZW5ndGhBZGp1c3Q9InNwYWNpbmciIHRleHRMZW5ndGg9IjI4MiIgeD0iMzkzMy41IiB5PSIxNjkuMjE4OCI+RnVsbE1hcChNYXAmbHQ7U3RyaW5nLCBMb2NhdGlvbiZndDsgbG9jYXRpb25zKTwvdGV4dD48ZWxsaXBzZSBjeD0iMzkyNC41IiBjeT0iMTc5Ljk2MDkiIGZpbGw9IiM4NEJFODQiIHJ4PSIzIiByeT0iMyIgc3R5bGU9InN0cm9rZTojMDM4MDQ4O3N0cm9rZS13aWR0aDoxLjA7Ii8+PHRleHQgZmlsbD0iIzAwMDAwMCIgZm9udC1mYW1pbHk9InNhbnMtc2VyaWYiIGZvbnQtc2l6ZT0iMTQiIGxlbmd0aEFkanVzdD0ic3BhY2luZyIgdGV4dExlbmd0aD0iMjcwIiB4PSIzOTMzLjUiIHk9IjE4NC4yMDMxIj52b2lkIGxvYWRXb3JsZEZyb21DU1YoU3RyaW5nIGZpbGVuYW1lKTwvdGV4dD48ZWxsaXBzZSBjeD0iMzkyNC41IiBjeT0iMTk0Ljk0NTMiIGZpbGw9IiM4NEJFODQiIHJ4PSIzIiByeT0iMyIgc3R5bGU9InN0cm9rZTojMDM4MDQ4O3N0cm9rZS13aWR0aDoxLjA7Ii8+PHRleHQgZmlsbD0iIzAwMDAwMCIgZm9udC1mYW1pbHk9InNhbnMtc2VyaWYiIGZvbnQtc2l6ZT0iMTQiIGxlbmd0aEFkanVzdD0ic3BhY2luZyIgdGV4dExlbmd0aD0iMjEyIiB4PSIzOTMzLjUiIHk9IjE5OS4xODc1Ij5TdHJpbmcgZ2V0RGlyZWN0aW9uKGludCBpbmRleCk8L3RleHQ+PC9nPjwhLS1jbGFzcyBMb2NhdGlvbi0tPjxnIGlkPSJlbGVtX0xvY2F0aW9uIj48cmVjdCBjb2RlTGluZT0iODMiIGZpbGw9IiNGMUYxRjEiIGhlaWdodD0iMTUyLjg5MDYiIGlkPSJMb2NhdGlvbiIgcng9IjIuNSIgcnk9IjIuNSIgc3R5bGU9InN0cm9rZTojMTgxODE4O3N0cm9rZS13aWR0aDowLjU7IiB3aWR0aD0iMzQ0IiB4PSIzODk1LjUiIHk9IjM3MCIvPjxlbGxpcHNlIGN4PSI0MDM1LjI1IiBjeT0iMzg2IiBmaWxsPSIjQUREMUIyIiByeD0iMTEiIHJ5PSIxMSIgc3R5bGU9InN0cm9rZTojMTgxODE4O3N0cm9rZS13aWR0aDoxLjA7Ii8+PHBhdGggZD0iTTQwMzIuODc1LDM5MC4yNSBMNDAzMi44NzUsMzkyIEw0MDM3LjgxMjUsMzkyIEw0MDM3LjgxMjUsMzkwLjI1IEw0MDMyLjg3NSwzOTAuMjUgWiBNNDAzMy41NjI1LDM5MC45Mzc1IFE0MDMzLjU2MjUsMzkwLjkzNzUgNDAzMy41NjI1LDM4MS43NSBMNDAzMS44MTI1LDM4MS43NSBRNDAzMS44MTI1LDM4MS43NSA0MDMxLjgxMjUsMzkwLjkzNzUgTDQwMzMuNTYyNSwzOTAuOTM3NSBaIE00MDM3LjEyNSwzOTAuOTM3NSBMNDAzOC44NzUsMzkwLjkzNzUgUTQwMzguODc1LDM5MC45Mzc1IDQwMzguODc1LDM4OC4xMjUgTDQwMzcuMTI1LDM4OC4xMjUgUTQwMzcuMTI1LDM4OC4xMjUgNDAzNy4xMjUsMzkwLjkzNzUgWiBNNDAzNy4xMjUsMzgxLjc1IFE0MDM3LjEyNSwzODEuNzUgNDAzNy4xMjUsMzg0LjU2MjUgTDQwMzguODc1LDM4NC41NjI1IFE0MDM4Ljg3NSwzODQuNTYyNSA0MDM4Ljg3NSwzODEuNzUgTDQwMzcuMTI1LDM4MS43NSBaIE00MDMyLjg3NSwzODIuNDM3NSBMNDAzNy44MTI1LDM4Mi40Mzc1IEw0MDM3LjgxMjUsMzgwLjY4NzUgTDQwMzIuODc1LDM4MC42ODc1IEw0MDMyLjg3NSwzODIuNDM3NSBaICIgZmlsbD0iIzAwMDAwMCIvPjx0ZXh0IGZpbGw9IiMwMDAwMDAiIGZvbnQtZmFtaWx5PSJzYW5zLXNlcmlmIiBmb250LXNpemU9IjE0IiBsZW5ndGhBZGp1c3Q9InNwYWNpbmciIHRleHRMZW5ndGg9IjU2IiB4PSI0MDU1Ljc1IiB5PSIzOTEuNzQyMiI+TG9jYXRpb248L3RleHQ+PGxpbmUgc3R5bGU9InN0cm9rZTojMTgxODE4O3N0cm9rZS13aWR0aDowLjU7IiB4MT0iMzg5Ni41IiB4Mj0iNDIzOC41IiB5MT0iNDAyIiB5Mj0iNDAyIi8+PHJlY3QgZmlsbD0ibm9uZSIgaGVpZ2h0PSI2IiBzdHlsZT0ic3Ryb2tlOiNDODI5MzA7c3Ryb2tlLXdpZHRoOjEuMDsiIHdpZHRoPSI2IiB4PSIzOTAzLjUiIHk9IjQxMS45OTIyIi8+PHRleHQgZmlsbD0iIzAwMDAwMCIgZm9udC1mYW1pbHk9InNhbnMtc2VyaWYiIGZvbnQtc2l6ZT0iMTQiIGxlbmd0aEFkanVzdD0ic3BhY2luZyIgdGV4dExlbmd0aD0iNzgiIHg9IjM5MTUuNSIgeT0iNDE5LjIzNDQiPlN0cmluZyBuYW1lPC90ZXh0PjxyZWN0IGZpbGw9Im5vbmUiIGhlaWdodD0iNiIgc3R5bGU9InN0cm9rZTojQzgyOTMwO3N0cm9rZS13aWR0aDoxLjA7IiB3aWR0aD0iNiIgeD0iMzkwMy41IiB5PSI0MjYuOTc2NiIvPjx0ZXh0IGZpbGw9IiMwMDAwMDAiIGZvbnQtZmFtaWx5PSJzYW5zLXNlcmlmIiBmb250LXNpemU9IjE0IiBsZW5ndGhBZGp1c3Q9InNwYWNpbmciIHRleHRMZW5ndGg9IjE4OSIgeD0iMzkxNS41IiB5PSI0MzQuMjE4OCI+TWFwJmx0O1N0cmluZywgTG9jYXRpb24mZ3Q7IGV4aXRzPC90ZXh0PjxsaW5lIHN0eWxlPSJzdHJva2U6IzE4MTgxODtzdHJva2Utd2lkdGg6MC41OyIgeDE9IjM4OTYuNSIgeDI9IjQyMzguNSIgeTE9IjQzOS45Njg4IiB5Mj0iNDM5Ljk2ODgiLz48ZWxsaXBzZSBjeD0iMzkwNi41IiBjeT0iNDUyLjk2MDkiIGZpbGw9IiM4NEJFODQiIHJ4PSIzIiByeT0iMyIgc3R5bGU9InN0cm9rZTojMDM4MDQ4O3N0cm9rZS13aWR0aDoxLjA7Ii8+PHRleHQgZmlsbD0iIzAwMDAwMCIgZm9udC1mYW1pbHk9InNhbnMtc2VyaWYiIGZvbnQtc2l6ZT0iMTQiIGxlbmd0aEFkanVzdD0ic3BhY2luZyIgdGV4dExlbmd0aD0iMTUwIiB4PSIzOTE1LjUiIHk9IjQ1Ny4yMDMxIj5Mb2NhdGlvbihTdHJpbmcgbmFtZSk8L3RleHQ+PGVsbGlwc2UgY3g9IjM5MDYuNSIgY3k9IjQ2Ny45NDUzIiBmaWxsPSIjODRCRTg0IiByeD0iMyIgcnk9IjMiIHN0eWxlPSJzdHJva2U6IzAzODA0ODtzdHJva2Utd2lkdGg6MS4wOyIvPjx0ZXh0IGZpbGw9IiMwMDAwMDAiIGZvbnQtZmFtaWx5PSJzYW5zLXNlcmlmIiBmb250LXNpemU9IjE0IiBsZW5ndGhBZGp1c3Q9InNwYWNpbmciIHRleHRMZW5ndGg9IjExNSIgeD0iMzkxNS41IiB5PSI0NzIuMTg3NSI+U3RyaW5nIGdldE5hbWUoKTwvdGV4dD48ZWxsaXBzZSBjeD0iMzkwNi41IiBjeT0iNDgyLjkyOTciIGZpbGw9IiM4NEJFODQiIHJ4PSIzIiByeT0iMyIgc3R5bGU9InN0cm9rZTojMDM4MDQ4O3N0cm9rZS13aWR0aDoxLjA7Ii8+PHRleHQgZmlsbD0iIzAwMDAwMCIgZm9udC1mYW1pbHk9InNhbnMtc2VyaWYiIGZvbnQtc2l6ZT0iMTQiIGxlbmd0aEFkanVzdD0ic3BhY2luZyIgdGV4dExlbmd0aD0iMTc5IiB4PSIzOTE1LjUiIHk9IjQ4Ny4xNzE5Ij52b2lkIHNldE5hbWUoU3RyaW5nIG5hbWUpPC90ZXh0PjxlbGxpcHNlIGN4PSIzOTA2LjUiIGN5PSI0OTcuOTE0MSIgZmlsbD0iIzg0QkU4NCIgcng9IjMiIHJ5PSIzIiBzdHlsZT0ic3Ryb2tlOiMwMzgwNDg7c3Ryb2tlLXdpZHRoOjEuMDsiLz48dGV4dCBmaWxsPSIjMDAwMDAwIiBmb250LWZhbWlseT0ic2Fucy1zZXJpZiIgZm9udC1zaXplPSIxNCIgbGVuZ3RoQWRqdXN0PSJzcGFjaW5nIiB0ZXh0TGVuZ3RoPSIyMjYiIHg9IjM5MTUuNSIgeT0iNTAyLjE1NjMiPk1hcCZsdDtTdHJpbmcsIExvY2F0aW9uJmd0OyBnZXRFeGl0cygpPC90ZXh0PjxlbGxpcHNlIGN4PSIzOTA2LjUiIGN5PSI1MTIuODk4NCIgZmlsbD0iIzg0QkU4NCIgcng9IjMiIHJ5PSIzIiBzdHlsZT0ic3Ryb2tlOiMwMzgwNDg7c3Ryb2tlLXdpZHRoOjEuMDsiLz48dGV4dCBmaWxsPSIjMDAwMDAwIiBmb250LWZhbWlseT0ic2Fucy1zZXJpZiIgZm9udC1zaXplPSIxNCIgbGVuZ3RoQWRqdXN0PSJzcGFjaW5nIiB0ZXh0TGVuZ3RoPSIzMTgiIHg9IjM5MTUuNSIgeT0iNTE3LjE0MDYiPnZvaWQgc2V0RXhpdChTdHJpbmcgZGlyZWN0aW9uLCBMb2NhdGlvbiByb29tKTwvdGV4dD48L2c+PCEtLWNsYXNzIFByb2ZpbGUtLT48ZyBpZD0iZWxlbV9Qcm9maWxlIj48cmVjdCBjb2RlTGluZT0iOTUiIGZpbGw9IiNGMUYxRjEiIGhlaWdodD0iMjg3Ljc1IiBpZD0iUHJvZmlsZSIgcng9IjIuNSIgcnk9IjIuNSIgc3R5bGU9InN0cm9rZTojMTgxODE4O3N0cm9rZS13aWR0aDowLjU7IiB3aWR0aD0iMjgyIiB4PSI0MjU2LjUiIHk9IjciLz48ZWxsaXBzZSBjeD0iNDM2OC43NSIgY3k9IjIzIiBmaWxsPSIjQUREMUIyIiByeD0iMTEiIHJ5PSIxMSIgc3R5bGU9InN0cm9rZTojMTgxODE4O3N0cm9rZS13aWR0aDoxLjA7Ii8+PHBhdGggZD0iTTQzNjYuMzc1LDI3LjI1IEw0MzY2LjM3NSwyOSBMNDM3MS4zMTI1LDI5IEw0MzcxLjMxMjUsMjcuMjUgTDQzNjYuMzc1LDI3LjI1IFogTTQzNjcuMDYyNSwyNy45Mzc1IFE0MzY3LjA2MjUsMjcuOTM3NSA0MzY3LjA2MjUsMTguNzUgTDQzNjUuMzEyNSwxOC43NSBRNDM2NS4zMTI1LDE4Ljc1IDQzNjUuMzEyNSwyNy45Mzc1IEw0MzY3LjA2MjUsMjcuOTM3NSBaIE00MzcwLjYyNSwyNy45Mzc1IEw0MzcyLjM3NSwyNy45Mzc1IFE0MzcyLjM3NSwyNy45Mzc1IDQzNzIuMzc1LDI1LjEyNSBMNDM3MC42MjUsMjUuMTI1IFE0MzcwLjYyNSwyNS4xMjUgNDM3MC42MjUsMjcuOTM3NSBaIE00MzcwLjYyNSwxOC43NSBRNDM3MC42MjUsMTguNzUgNDM3MC42MjUsMjEuNTYyNSBMNDM3Mi4zNzUsMjEuNTYyNSBRNDM3Mi4zNzUsMjEuNTYyNSA0MzcyLjM3NSwxOC43NSBMNDM3MC42MjUsMTguNzUgWiBNNDM2Ni4zNzUsMTkuNDM3NSBMNDM3MS4zMTI1LDE5LjQzNzUgTDQzNzEuMzEyNSwxNy42ODc1IEw0MzY2LjM3NSwxNy42ODc1IEw0MzY2LjM3NSwxOS40Mzc1IFogIiBmaWxsPSIjMDAwMDAwIi8+PHRleHQgZmlsbD0iIzAwMDAwMCIgZm9udC1mYW1pbHk9InNhbnMtc2VyaWYiIGZvbnQtc2l6ZT0iMTQiIGxlbmd0aEFkanVzdD0ic3BhY2luZyIgdGV4dExlbmd0aD0iNDkiIHg9IjQzODkuMjUiIHk9IjI4Ljc0MjIiPlByb2ZpbGU8L3RleHQ+PGxpbmUgc3R5bGU9InN0cm9rZTojMTgxODE4O3N0cm9rZS13aWR0aDowLjU7IiB4MT0iNDI1Ny41IiB4Mj0iNDUzNy41IiB5MT0iMzkiIHkyPSIzOSIvPjxyZWN0IGZpbGw9Im5vbmUiIGhlaWdodD0iNiIgc3R5bGU9InN0cm9rZTojQzgyOTMwO3N0cm9rZS13aWR0aDoxLjA7IiB3aWR0aD0iNiIgeD0iNDI2NC41IiB5PSI0OC45OTIyIi8+PHRleHQgZmlsbD0iIzAwMDAwMCIgZm9udC1mYW1pbHk9InNhbnMtc2VyaWYiIGZvbnQtc2l6ZT0iMTQiIGxlbmd0aEFkanVzdD0ic3BhY2luZyIgdGV4dExlbmd0aD0iMTA2IiB4PSI0Mjc2LjUiIHk9IjU2LjIzNDQiPlN0cmluZyB1c2VybmFtZTwvdGV4dD48cmVjdCBmaWxsPSJub25lIiBoZWlnaHQ9IjYiIHN0eWxlPSJzdHJva2U6I0M4MjkzMDtzdHJva2Utd2lkdGg6MS4wOyIgd2lkdGg9IjYiIHg9IjQyNjQuNSIgeT0iNjMuOTc2NiIvPjx0ZXh0IGZpbGw9IiMwMDAwMDAiIGZvbnQtZmFtaWx5PSJzYW5zLXNlcmlmIiBmb250LXNpemU9IjE0IiBsZW5ndGhBZGp1c3Q9InNwYWNpbmciIHRleHRMZW5ndGg9IjQyIiB4PSI0Mjc2LjUiIHk9IjcxLjIxODgiPmludCB4cDwvdGV4dD48cmVjdCBmaWxsPSJub25lIiBoZWlnaHQ9IjYiIHN0eWxlPSJzdHJva2U6I0M4MjkzMDtzdHJva2Utd2lkdGg6MS4wOyIgd2lkdGg9IjYiIHg9IjQyNjQuNSIgeT0iNzguOTYwOSIvPjx0ZXh0IGZpbGw9IiMwMDAwMDAiIGZvbnQtZmFtaWx5PSJzYW5zLXNlcmlmIiBmb250LXNpemU9IjE0IiBsZW5ndGhBZGp1c3Q9InNwYWNpbmciIHRleHRMZW5ndGg9IjEwNiIgeD0iNDI3Ni41IiB5PSI4Ni4yMDMxIj5pbnQgcG93ZXJQb2ludHM8L3RleHQ+PHJlY3QgZmlsbD0ibm9uZSIgaGVpZ2h0PSI2IiBzdHlsZT0ic3Ryb2tlOiNDODI5MzA7c3Ryb2tlLXdpZHRoOjEuMDsiIHdpZHRoPSI2IiB4PSI0MjY0LjUiIHk9IjkzLjk0NTMiLz48dGV4dCBmaWxsPSIjMDAwMDAwIiBmb250LWZhbWlseT0ic2Fucy1zZXJpZiIgZm9udC1zaXplPSIxNCIgbGVuZ3RoQWRqdXN0PSJzcGFjaW5nIiB0ZXh0TGVuZ3RoPSI2MyIgeD0iNDI3Ni41IiB5PSIxMDEuMTg3NSI+aW50IGNvaW5zPC90ZXh0PjxyZWN0IGZpbGw9Im5vbmUiIGhlaWdodD0iNiIgc3R5bGU9InN0cm9rZTojQzgyOTMwO3N0cm9rZS13aWR0aDoxLjA7IiB3aWR0aD0iNiIgeD0iNDI2NC41IiB5PSIxMDguOTI5NyIvPjx0ZXh0IGZpbGw9IiMwMDAwMDAiIGZvbnQtZmFtaWx5PSJzYW5zLXNlcmlmIiBmb250LXNpemU9IjE0IiBsZW5ndGhBZGp1c3Q9InNwYWNpbmciIHRleHRMZW5ndGg9Ijg0IiB4PSI0Mjc2LjUiIHk9IjExNi4xNzE5Ij5pbnQgdHJvcGhpZXM8L3RleHQ+PGxpbmUgc3R5bGU9InN0cm9rZTojMTgxODE4O3N0cm9rZS13aWR0aDowLjU7IiB4MT0iNDI1Ny41IiB4Mj0iNDUzNy41IiB5MT0iMTIxLjkyMTkiIHkyPSIxMjEuOTIxOSIvPjxlbGxpcHNlIGN4PSI0MjY3LjUiIGN5PSIxMzQuOTE0MSIgZmlsbD0iIzg0QkU4NCIgcng9IjMiIHJ5PSIzIiBzdHlsZT0ic3Ryb2tlOiMwMzgwNDg7c3Ryb2tlLXdpZHRoOjEuMDsiLz48dGV4dCBmaWxsPSIjMDAwMDAwIiBmb250LWZhbWlseT0ic2Fucy1zZXJpZiIgZm9udC1zaXplPSIxNCIgbGVuZ3RoQWRqdXN0PSJzcGFjaW5nIiB0ZXh0TGVuZ3RoPSIxNDMiIHg9IjQyNzYuNSIgeT0iMTM5LjE1NjMiPlN0cmluZyB2aWV3UHJvZmlsZSgpPC90ZXh0PjxlbGxpcHNlIGN4PSI0MjY3LjUiIGN5PSIxNDkuODk4NCIgZmlsbD0iIzg0QkU4NCIgcng9IjMiIHJ5PSIzIiBzdHlsZT0ic3Ryb2tlOiMwMzgwNDg7c3Ryb2tlLXdpZHRoOjEuMDsiLz48dGV4dCBmaWxsPSIjMDAwMDAwIiBmb250LWZhbWlseT0ic2Fucy1zZXJpZiIgZm9udC1zaXplPSIxNCIgbGVuZ3RoQWRqdXN0PSJzcGFjaW5nIiB0ZXh0TGVuZ3RoPSIxNDMiIHg9IjQyNzYuNSIgeT0iMTU0LjE0MDYiPlN0cmluZyBnZXRVc2VybmFtZSgpPC90ZXh0PjxlbGxpcHNlIGN4PSI0MjY3LjUiIGN5PSIxNjQuODgyOCIgZmlsbD0iIzg0QkU4NCIgcng9IjMiIHJ5PSIzIiBzdHlsZT0ic3Ryb2tlOiMwMzgwNDg7c3Ryb2tlLXdpZHRoOjEuMDsiLz48dGV4dCBmaWxsPSIjMDAwMDAwIiBmb250LWZhbWlseT0ic2Fucy1zZXJpZiIgZm9udC1zaXplPSIxNCIgbGVuZ3RoQWRqdXN0PSJzcGFjaW5nIiB0ZXh0TGVuZ3RoPSIyMzUiIHg9IjQyNzYuNSIgeT0iMTY5LjEyNSI+dm9pZCBzZXRVc2VybmFtZShTdHJpbmcgdXNlcm5hbWUpPC90ZXh0PjxlbGxpcHNlIGN4PSI0MjY3LjUiIGN5PSIxNzkuODY3MiIgZmlsbD0iIzg0QkU4NCIgcng9IjMiIHJ5PSIzIiBzdHlsZT0ic3Ryb2tlOiMwMzgwNDg7c3Ryb2tlLXdpZHRoOjEuMDsiLz48dGV4dCBmaWxsPSIjMDAwMDAwIiBmb250LWZhbWlseT0ic2Fucy1zZXJpZiIgZm9udC1zaXplPSIxNCIgbGVuZ3RoQWRqdXN0PSJzcGFjaW5nIiB0ZXh0TGVuZ3RoPSI3OSIgeD0iNDI3Ni41IiB5PSIxODQuMTA5NCI+aW50IGdldFhwKCk8L3RleHQ+PGVsbGlwc2UgY3g9IjQyNjcuNSIgY3k9IjE5NC44NTE2IiBmaWxsPSIjODRCRTg0IiByeD0iMyIgcnk9IjMiIHN0eWxlPSJzdHJva2U6IzAzODA0ODtzdHJva2Utd2lkdGg6MS4wOyIvPjx0ZXh0IGZpbGw9IiMwMDAwMDAiIGZvbnQtZmFtaWx5PSJzYW5zLXNlcmlmIiBmb250LXNpemU9IjE0IiBsZW5ndGhBZGp1c3Q9InNwYWNpbmciIHRleHRMZW5ndGg9IjEyOCIgeD0iNDI3Ni41IiB5PSIxOTkuMDkzOCI+dm9pZCBzZXRYcChpbnQgeHApPC90ZXh0PjxlbGxpcHNlIGN4PSI0MjY3LjUiIGN5PSIyMDkuODM1OSIgZmlsbD0iIzg0QkU4NCIgcng9IjMiIHJ5PSIzIiBzdHlsZT0ic3Ryb2tlOiMwMzgwNDg7c3Ryb2tlLXdpZHRoOjEuMDsiLz48dGV4dCBmaWxsPSIjMDAwMDAwIiBmb250LWZhbWlseT0ic2Fucy1zZXJpZiIgZm9udC1zaXplPSIxNCIgbGVuZ3RoQWRqdXN0PSJzcGFjaW5nIiB0ZXh0TGVuZ3RoPSIxNDMiIHg9IjQyNzYuNSIgeT0iMjE0LjA3ODEiPmludCBnZXRQb3dlclBvaW50cygpPC90ZXh0PjxlbGxpcHNlIGN4PSI0MjY3LjUiIGN5PSIyMjQuODIwMyIgZmlsbD0iIzg0QkU4NCIgcng9IjMiIHJ5PSIzIiBzdHlsZT0ic3Ryb2tlOiMwMzgwNDg7c3Ryb2tlLXdpZHRoOjEuMDsiLz48dGV4dCBmaWxsPSIjMDAwMDAwIiBmb250LWZhbWlseT0ic2Fucy1zZXJpZiIgZm9udC1zaXplPSIxNCIgbGVuZ3RoQWRqdXN0PSJzcGFjaW5nIiB0ZXh0TGVuZ3RoPSIyNTYiIHg9IjQyNzYuNSIgeT0iMjI5LjA2MjUiPnZvaWQgc2V0UG93ZXJQb2ludHMoaW50IHBvd2VyUG9pbnRzKTwvdGV4dD48ZWxsaXBzZSBjeD0iNDI2Ny41IiBjeT0iMjM5LjgwNDciIGZpbGw9IiM4NEJFODQiIHJ4PSIzIiByeT0iMyIgc3R5bGU9InN0cm9rZTojMDM4MDQ4O3N0cm9rZS13aWR0aDoxLjA7Ii8+PHRleHQgZmlsbD0iIzAwMDAwMCIgZm9udC1mYW1pbHk9InNhbnMtc2VyaWYiIGZvbnQtc2l6ZT0iMTQiIGxlbmd0aEFkanVzdD0ic3BhY2luZyIgdGV4dExlbmd0aD0iMTAwIiB4PSI0Mjc2LjUiIHk9IjI0NC4wNDY5Ij5pbnQgZ2V0Q29pbnMoKTwvdGV4dD48ZWxsaXBzZSBjeD0iNDI2Ny41IiBjeT0iMjU0Ljc4OTEiIGZpbGw9IiM4NEJFODQiIHJ4PSIzIiByeT0iMyIgc3R5bGU9InN0cm9rZTojMDM4MDQ4O3N0cm9rZS13aWR0aDoxLjA7Ii8+PHRleHQgZmlsbD0iIzAwMDAwMCIgZm9udC1mYW1pbHk9InNhbnMtc2VyaWYiIGZvbnQtc2l6ZT0iMTQiIGxlbmd0aEFkanVzdD0ic3BhY2luZyIgdGV4dExlbmd0aD0iMTcwIiB4PSI0Mjc2LjUiIHk9IjI1OS4wMzEzIj52b2lkIHNldENvaW5zKGludCBjb2lucyk8L3RleHQ+PGVsbGlwc2UgY3g9IjQyNjcuNSIgY3k9IjI2OS43NzM0IiBmaWxsPSIjODRCRTg0IiByeD0iMyIgcnk9IjMiIHN0eWxlPSJzdHJva2U6IzAzODA0ODtzdHJva2Utd2lkdGg6MS4wOyIvPjx0ZXh0IGZpbGw9IiMwMDAwMDAiIGZvbnQtZmFtaWx5PSJzYW5zLXNlcmlmIiBmb250LXNpemU9IjE0IiBsZW5ndGhBZGp1c3Q9InNwYWNpbmciIHRleHRMZW5ndGg9IjEyMSIgeD0iNDI3Ni41IiB5PSIyNzQuMDE1NiI+aW50IGdldFRyb3BoaWVzKCk8L3RleHQ+PGVsbGlwc2UgY3g9IjQyNjcuNSIgY3k9IjI4NC43NTc4IiBmaWxsPSIjODRCRTg0IiByeD0iMyIgcnk9IjMiIHN0eWxlPSJzdHJva2U6IzAzODA0ODtzdHJva2Utd2lkdGg6MS4wOyIvPjx0ZXh0IGZpbGw9IiMwMDAwMDAiIGZvbnQtZmFtaWx5PSJzYW5zLXNlcmlmIiBmb250LXNpemU9IjE0IiBsZW5ndGhBZGp1c3Q9InNwYWNpbmciIHRleHRMZW5ndGg9IjIxMiIgeD0iNDI3Ni41IiB5PSIyODkiPnZvaWQgc2V0VHJvcGhpZXMoaW50IHRyb3BoaWVzKTwvdGV4dD48L2c+PCEtLXJldmVyc2UgbGluayBCcmF3bGVyIHRvIEJ1bGwtLT48ZyBpZD0ibGlua19CcmF3bGVyX0J1bGwiPjxwYXRoIGNvZGVMaW5lPSIxMTYiIGQ9Ik0xNTQ3Ljk4NjksMTc4LjAzNDYgQzEyOTguNTQ2OSwyMTAuMDk0NiA4NzguOTUsMjcyLjM5IDUxMy41LDM3MCBDNDY4LjQxLDM4Mi4wNCA0MTkuMjksMzk5Ljc1IDM4MC4yMSw0MTUgIiBmaWxsPSJub25lIiBpZD0iQnJhd2xlci1iYWNrdG8tQnVsbCIgc3R5bGU9InN0cm9rZTojMTgxODE4O3N0cm9rZS13aWR0aDoxLjA7Ii8+PHBvbHlnb24gZmlsbD0ibm9uZSIgcG9pbnRzPSIxNTY1Ljg0LDE3NS43NCwxNTQ3LjIyMiwxNzIuMDgzNiwxNTQ4Ljc1MTcsMTgzLjk4NTcsMTU2NS44NCwxNzUuNzQiIHN0eWxlPSJzdHJva2U6IzE4MTgxODtzdHJva2Utd2lkdGg6MS4wOyIvPjwvZz48IS0tcmV2ZXJzZSBsaW5rIEJyYXdsZXIgdG8gQ2FybC0tPjxnIGlkPSJsaW5rX0JyYXdsZXJfQ2FybCI+PHBhdGggY29kZUxpbmU9IjExNyIgZD0iTTE1NDguMjk0NCwyMDIuNjI5OCBDMTM3Ny4zNjQ0LDI0My41Mzk4IDExNDMuMzksMzAyLjc1IDkyNy41LDM3MCBDODkxLjcxLDM4MS4xNSA4NTIuOTgsMzk0LjgzIDgxOC44Miw0MDcuNDYgIiBmaWxsPSJub25lIiBpZD0iQnJhd2xlci1iYWNrdG8tQ2FybCIgc3R5bGU9InN0cm9rZTojMTgxODE4O3N0cm9rZS13aWR0aDoxLjA7Ii8+PHBvbHlnb24gZmlsbD0ibm9uZSIgcG9pbnRzPSIxNTY1LjgsMTk4LjQ0LDE1NDYuODk3OCwxOTYuNzk0NiwxNTQ5LjY5MSwyMDguNDY1LDE1NjUuOCwxOTguNDQiIHN0eWxlPSJzdHJva2U6IzE4MTgxODtzdHJva2Utd2lkdGg6MS4wOyIvPjwvZz48IS0tcmV2ZXJzZSBsaW5rIEJyYXdsZXIgdG8gQ3Jvdy0tPjxnIGlkPSJsaW5rX0JyYXdsZXJfQ3JvdyI+PHBhdGggY29kZUxpbmU9IjExOCIgZD0iTTE1NDkuNjU5NCwyNTIuODYxOSBDMTQzMS42NTk0LDMwNy43NTE5IDEzMDUuMTEsMzY2LjYxIDEyMTcuMjcsNDA3LjQ2ICIgZmlsbD0ibm9uZSIgaWQ9IkJyYXdsZXItYmFja3RvLUNyb3ciIHN0eWxlPSJzdHJva2U6IzE4MTgxODtzdHJva2Utd2lkdGg6MS4wOyIvPjxwb2x5Z29uIGZpbGw9Im5vbmUiIHBvaW50cz0iMTU2NS45OCwyNDUuMjcsMTU0Ny4xMjg3LDI0Ny40MjE3LDE1NTIuMTksMjU4LjMwMjEsMTU2NS45OCwyNDUuMjciIHN0eWxlPSJzdHJva2U6IzE4MTgxODtzdHJva2Utd2lkdGg6MS4wOyIvPjwvZz48IS0tcmV2ZXJzZSBsaW5rIEJyYXdsZXIgdG8gTWFuZHktLT48ZyBpZD0ibGlua19CcmF3bGVyX01hbmR5Ij48cGF0aCBjb2RlTGluZT0iMTE5IiBkPSJNMTY1Ny41Mzc3LDMwMi4xNDggQzE2MjUuNzA3NywzNDYuMDA4IDE2MDMuNDgsMzc2LjY0IDE1ODEuMTcsNDA3LjM4ICIgZmlsbD0ibm9uZSIgaWQ9IkJyYXdsZXItYmFja3RvLU1hbmR5IiBzdHlsZT0ic3Ryb2tlOiMxODE4MTg7c3Ryb2tlLXdpZHRoOjEuMDsiLz48cG9seWdvbiBmaWxsPSJub25lIiBwb2ludHM9IjE2NjguMTEsMjg3LjU4LDE2NTIuNjgxNywyOTguNjIzOSwxNjYyLjM5MzcsMzA1LjY3MjEsMTY2OC4xMSwyODcuNTgiIHN0eWxlPSJzdHJva2U6IzE4MTgxODtzdHJva2Utd2lkdGg6MS4wOyIvPjwvZz48IS0tcmV2ZXJzZSBsaW5rIEJyYXdsZXIgdG8gTW9ydGlzLS0+PGcgaWQ9ImxpbmtfQnJhd2xlcl9Nb3J0aXMiPjxwYXRoIGNvZGVMaW5lPSIxMjAiIGQ9Ik0xODc0Ljk2OTYsMzAyLjE3MTcgQzE5MDYuNjQ5NiwzNDYuMDMxNyAxOTI4Ljc2LDM3Ni42NCAxOTUwLjk2LDQwNy4zOCAiIGZpbGw9Im5vbmUiIGlkPSJCcmF3bGVyLWJhY2t0by1Nb3J0aXMiIHN0eWxlPSJzdHJva2U6IzE4MTgxODtzdHJva2Utd2lkdGg6MS4wOyIvPjxwb2x5Z29uIGZpbGw9Im5vbmUiIHBvaW50cz0iMTg2NC40MywyODcuNTgsMTg3MC4xMDU3LDMwNS42ODQ5LDE4NzkuODMzNSwyOTguNjU4NSwxODY0LjQzLDI4Ny41OCIgc3R5bGU9InN0cm9rZTojMTgxODE4O3N0cm9rZS13aWR0aDoxLjA7Ii8+PC9nPjwhLS1yZXZlcnNlIGxpbmsgQnJhd2xlciB0byBQaXBlci0tPjxnIGlkPSJsaW5rX0JyYXdsZXJfUGlwZXIiPjxwYXRoIGNvZGVMaW5lPSIxMjEiIGQ9Ik0xOTgzLjUyNzksMjUxLjk5MzEgQzIxMTAuNDM3OSwzMTAuNDczMSAyMjUwLjA1LDM3NC44IDIzMzYuOTQsNDE0LjgzICIgZmlsbD0ibm9uZSIgaWQ9IkJyYXdsZXItYmFja3RvLVBpcGVyIiBzdHlsZT0ic3Ryb2tlOiMxODE4MTg7c3Ryb2tlLXdpZHRoOjEuMDsiLz48cG9seWdvbiBmaWxsPSJub25lIiBwb2ludHM9IjE5NjcuMTgsMjQ0LjQ2LDE5ODEuMDE2OCwyNTcuNDQyNCwxOTg2LjAzODksMjQ2LjU0MzgsMTk2Ny4xOCwyNDQuNDYiIHN0eWxlPSJzdHJva2U6IzE4MTgxODtzdHJva2Utd2lkdGg6MS4wOyIvPjwvZz48IS0tcmV2ZXJzZSBsaW5rIEJyYXdsZXIgdG8gUG9jby0tPjxnIGlkPSJsaW5rX0JyYXdsZXJfUG9jbyI+PHBhdGggY29kZUxpbmU9IjEyMiIgZD0iTTE5ODQuOTE2NSwyMDIuMDg0MSBDMjE1Ny40OTY1LDI0Mi45MTQxIDIzOTQuODMsMzAyLjM0IDI2MTMuNSwzNzAgQzI2NDkuNDcsMzgxLjEzIDI2ODguMzgsMzk0LjggMjcyMi43MSw0MDcuNDQgIiBmaWxsPSJub25lIiBpZD0iQnJhd2xlci1iYWNrdG8tUG9jbyIgc3R5bGU9InN0cm9rZTojMTgxODE4O3N0cm9rZS13aWR0aDoxLjA7Ii8+PHBvbHlnb24gZmlsbD0ibm9uZSIgcG9pbnRzPSIxOTY3LjQsMTk3Ljk0LDE5ODMuNTM1MSwyMDcuOTIzLDE5ODYuMjk3OCwxOTYuMjQ1MywxOTY3LjQsMTk3Ljk0IiBzdHlsZT0ic3Ryb2tlOiMxODE4MTg7c3Ryb2tlLXdpZHRoOjEuMDsiLz48L2c+PCEtLXJldmVyc2UgbGluayBCcmF3bGVyIHRvIFNoZWxseS0tPjxnIGlkPSJsaW5rX0JyYXdsZXJfU2hlbGx5Ij48cGF0aCBjb2RlTGluZT0iMTIzIiBkPSJNMTk4NC45MjA5LDE3OC4zNjIyIEMyMjM1Ljc1MDksMjEwLjg1MjIgMjY1OS4yNiwyNzMuNyAzMDI4LjUsMzcwIEMzMDc0LjgyLDM4Mi4wOCAzMTI1LjM3LDM5OS43IDMxNjUuNzEsNDE0Ljg4ICIgZmlsbD0ibm9uZSIgaWQ9IkJyYXdsZXItYmFja3RvLVNoZWxseSIgc3R5bGU9InN0cm9rZTojMTgxODE4O3N0cm9rZS13aWR0aDoxLjA7Ii8+PHBvbHlnb24gZmlsbD0ibm9uZSIgcG9pbnRzPSIxOTY3LjA3LDE3Ni4wNSwxOTg0LjE1MDEsMTg0LjMxMjUsMTk4NS42OTE2LDE3Mi40MTE5LDE5NjcuMDcsMTc2LjA1IiBzdHlsZT0ic3Ryb2tlOiMxODE4MTg7c3Ryb2tlLXdpZHRoOjEuMDsiLz48L2c+PCEtLXJldmVyc2UgbGluayBCcmF3bGVyIHRvIFN1cmdlLS0+PGcgaWQ9ImxpbmtfQnJhd2xlcl9TdXJnZSI+PHBhdGggY29kZUxpbmU9IjEyNCIgZD0iTTE5ODUuMDM3NCwxNjUuMDk2OSBDMjMwNC4xMzc0LDE4Ny4wNzY5IDI5MjcuNDMsMjQyLjc5IDM0NTYuNSwzNzAgQzM0OTYuMDMsMzc5LjUgMzUzOC40NSwzOTMuODMgMzU3NC44MSw0MDcuNDYgIiBmaWxsPSJub25lIiBpZD0iQnJhd2xlci1iYWNrdG8tU3VyZ2UiIHN0eWxlPSJzdHJva2U6IzE4MTgxODtzdHJva2Utd2lkdGg6MS4wOyIvPjxwb2x5Z29uIGZpbGw9Im5vbmUiIHBvaW50cz0iMTk2Ny4wOCwxNjMuODYsMTk4NC42MjUxLDE3MS4wODI3LDE5ODUuNDQ5OCwxNTkuMTExMSwxOTY3LjA4LDE2My44NiIgc3R5bGU9InN0cm9rZTojMTgxODE4O3N0cm9rZS13aWR0aDoxLjA7Ii8+PC9nPjwhLS1saW5rIEZ1bGxNYXAgdG8gTG9jYXRpb24tLT48ZyBpZD0ibGlua19GdWxsTWFwX0xvY2F0aW9uIj48cGF0aCBjb2RlTGluZT0iMTI2IiBkPSJNNDA2Ny41LDIwNS4xNSBDNDA2Ny41LDI1MS4xNiA0MDY3LjUsMzEyLjIzIDQwNjcuNSwzNjMuODMgIiBmaWxsPSJub25lIiBpZD0iRnVsbE1hcC10by1Mb2NhdGlvbiIgc3R5bGU9InN0cm9rZTojMTgxODE4O3N0cm9rZS13aWR0aDoxLjA7Ii8+PHBvbHlnb24gZmlsbD0iIzE4MTgxOCIgcG9pbnRzPSI0MDY3LjUsMzY5LjgzLDQwNzEuNSwzNjAuODMsNDA2Ny41LDM2NC44Myw0MDYzLjUsMzYwLjgzLDQwNjcuNSwzNjkuODMiIHN0eWxlPSJzdHJva2U6IzE4MTgxODtzdHJva2Utd2lkdGg6MS4wOyIvPjxwb2x5Z29uIGZpbGw9IiMwMDAwMDAiIHBvaW50cz0iNDA3Mi41LDMzNy45NTcsNDA3NS40Mzg5LDMyOC45MTE5LDQwNjkuNTYxMSwzMjguOTExOSw0MDcyLjUsMzM3Ljk1NyIgc3R5bGU9InN0cm9rZTojMDAwMDAwO3N0cm9rZS13aWR0aDoxLjA7Ii8+PHRleHQgZmlsbD0iIzAwMDAwMCIgZm9udC1mYW1pbHk9InNhbnMtc2VyaWYiIGZvbnQtc2l6ZT0iMTMiIGxlbmd0aEFkanVzdD0ic3BhY2luZyIgdGV4dExlbmd0aD0iNTQiIHg9IjQwODEuNSIgeT0iMzM4LjI4OTEiPmNvbnRhaW5zPC90ZXh0PjwvZz48IS0tbGluayBCcmF3bGVyIHRvIFJhcml0eS0tPjxnIGlkPSJsaW5rX0JyYXdsZXJfUmFyaXR5Ij48cGF0aCBjb2RlTGluZT0iMTI3IiBkPSJNMTU2NS45OSwxNTguNjMgQzExNzguNTEsMTc0LjU5IDM0My41MiwyMjUuMTggOTkuNSwzNzAgQzkyLjgxLDM3My45NyA5MC44NTI3LDM3NC43ODg5IDg1LjMzMjcsMzgwLjUxODkgIiBmaWxsPSJub25lIiBpZD0iQnJhd2xlci10by1SYXJpdHkiIHN0eWxlPSJzdHJva2U6IzE4MTgxODtzdHJva2Utd2lkdGg6MS4wOyIvPjxwb2x5Z29uIGZpbGw9IiMxODE4MTgiIHBvaW50cz0iODEuMTcsMzg0Ljg0LDkwLjI5NDgsMzgxLjEzMzUsODQuNjM4OSwzODEuMjM5MSw4NC41MzM0LDM3NS41ODMyLDgxLjE3LDM4NC44NCIgc3R5bGU9InN0cm9rZTojMTgxODE4O3N0cm9rZS13aWR0aDoxLjA7Ii8+PC9nPjwhLS1TUkM9W2RMTlJaamVtNDd0RkxfWGpXdTBWTUFzR0E5bGpMVzhLYVFOVFZKSTk1d29RczdCMlBUTnN0LWpSUkNUNk1wS3lXRVVPRUpEcDlmY3YwekZmNTZKaHhLZVU0YklWWmMwM0VNdV9tQXk0WUN6Y2xpZEtlVFpjc1NQUU1WdmplR3doanZUZFNybmNOeEZydXRwcGJsbjlhWmo1bDVaRVktOFVWRTdtR1gxTjhLZTJjeU9ZRWlXS3VCZTU3RFB4dkRhTEZDOFVTNjM2QzFib3pRQ216Sk5rUTVEQkRfNk85ZVBhcWxTVjZUeVRmR0oxNmkyc1hVTkZEOEc5RVlFb1BIT3Q3N2xLd2ZFekU1RFNXU1IyRHNGOUg5SWRJRjY2ZXFIajJPN0Zld2ViU1pBbWdwUG1Vc1FIWXUycTgyRk5pRUFxS21yMjNRM2xqX2ZzOGlHcVJRb0NfdkhRMUQ5NDJ5V1RhSkc2ektvTm1iMjk4UGJ0Vk5DbkVCc3U2QzhPN2VESHREM1E5cl8xa2xnbXhDZVFKZy1TaWNrQndYODdPSVhsU1VGWUE3RHVlMGVzWF9hRTR3QVZNMWljbnlvLVpNRGozVXJpSmFsZ2M4R25GRGkzV1dKTlVwX0h1ZTA4U1JmaFNzWWduT2RsYVVFSXJsMWFKc3BGT09OSUtKSi1kaUh4aWVCQ1V1cXdmMWpfdWxuR2o1cEtFVzVCTWk5TUYwS3BHQ29meUtVU1NLdF91VDlCWkwxT19RMlNMNC1TN1hWNXpyR3hXZFRDSzBzRlRiT09NNHVQcDU0ZllQR1VrQXhHRFF3aDItaUxQZzZrQ2FDZmV0blFBeGhZamJUZFR2THczNzZVUXU1NldxczFEem5rSG5PaWNHbVVxS1lxZXdhd0ZQbWR1OUdVT3I1b0pnTWlkWU9UNGFYb1FYM3RQOTR3TnZiZEM3ZjFGQVZZczdYZUFHM1ZSWmJiMXVud3FmYTBQdW1rOWRPUUF4U3J1UUVveEtNR1B4MUdOa0U1eWdlTm9mSzVWeXJUOVA2RlZuVEs3UjBpUEVNSGxxUWpDZTdGWXI0ZFNoQ05sZVBVQ3BVOHdGVmVXNWNaVWpkam1lVlZ1YmZrbFp1WUxyWTBZOE5KSHpJSTIyMHJwX2tPY2h1MTlDUGU3ejYzQnkzYTA0aUlEc3ZjeGM2ejVfaEtCSEdJV0xkWXpsaEMzQklfXS0tPjwvZz48L3N2Zz4=;" vertex="1" parent="1">
            <mxGeometry x="-1860" y="320" width="4545" height="529" as="geometry" />
          </mxCell>
        </UserObject>
      </root>
    </mxGraphModel>
  </diagram>
</mxfile>
